<svg xmlns="http://www.w3.org/2000/svg" viewBox="0 0 320 50"><title>legal</title><g id="Layer_2" data-name="Layer 2"><g id="_Bottle_only._Excludes_cap_and_label." data-name="*Bottle only. Excludes cap and label."><path d="M277.3,36.33l-.65.42-.22-.38.68-.35-.68-.35.22-.39.65.42,0-.78h.44l0,.78.65-.42.22.39-.68.35.68.35-.22.38-.65-.42,0,.78h-.44Z" fill="#fff199"/><path d="M279.38,35h2.46a1.51,1.51,0,0,1,.73.16,1.15,1.15,0,0,1,.46.44,1.2,1.2,0,0,1,.15.59,1.06,1.06,0,0,1-.23.71.93.93,0,0,1-.57.36,1,1,0,0,1,.63.39,1.15,1.15,0,0,1,.26.76,1.21,1.21,0,0,1-.35.9,1.35,1.35,0,0,1-1,.36h-2.54Zm2.24,1.88a.54.54,0,0,0,.4-.15.48.48,0,0,0,.15-.37A.5.5,0,0,0,282,36a.57.57,0,0,0-.4-.14h-1.24v1Zm0,1.94a.63.63,0,0,0,.44-.15.51.51,0,0,0,.16-.4.53.53,0,0,0-.16-.39.64.64,0,0,0-.44-.16h-1.28v1.1Z" fill="#fff199"/><path d="M284.77,39.52a1.68,1.68,0,0,1-.63-.64,2,2,0,0,1,0-1.79,1.71,1.71,0,0,1,.63-.65,2,2,0,0,1,1.89,0,1.71,1.71,0,0,1,.63.65,2,2,0,0,1,0,1.79,1.68,1.68,0,0,1-.63.64,2,2,0,0,1-1.89,0Zm1.57-.84a1,1,0,0,0,.24-.7,1,1,0,0,0-.24-.7.75.75,0,0,0-.63-.28.78.78,0,0,0-.63.28,1.09,1.09,0,0,0-.23.7,1.07,1.07,0,0,0,.23.7.79.79,0,0,0,.63.29A.76.76,0,0,0,286.34,38.68Z" fill="#fff199"/><path d="M288.71,39.52a.9.9,0,0,1-.25-.69V37.07h-.56v-.78h.56v-.93h.9v.93H290v.78h-.68V38.6a.45.45,0,0,0,.08.26.28.28,0,0,0,.23.11.57.57,0,0,0,.18,0,.27.27,0,0,0,.12-.07l.19.67a1.06,1.06,0,0,1-.74.22A1,1,0,0,1,288.71,39.52Z" fill="#fff199"/><path d="M291.31,39.52a.9.9,0,0,1-.25-.69V37.07h-.56v-.78h.56v-.93h.9v.93h.68v.78H292V38.6a.45.45,0,0,0,.08.26.28.28,0,0,0,.23.11.57.57,0,0,0,.18,0,.27.27,0,0,0,.12-.07l.19.67a1.06,1.06,0,0,1-.74.22A1,1,0,0,1,291.31,39.52Z" fill="#fff199"/><path d="M293.42,35h.89v4.67h-.89Z" fill="#fff199"/><path d="M295.33,37.08a1.76,1.76,0,0,1,.63-.64,1.68,1.68,0,0,1,.9-.24,1.61,1.61,0,0,1,.88.24,1.48,1.48,0,0,1,.6.66,2.13,2.13,0,0,1,.21,1v.19H296a.89.89,0,0,0,.3.57,1,1,0,0,0,.67.22,1.47,1.47,0,0,0,.5-.09,1.27,1.27,0,0,0,.41-.24l.39.57a1.62,1.62,0,0,1-.62.35,2.43,2.43,0,0,1-.77.12,1.93,1.93,0,0,1-.93-.22,1.66,1.66,0,0,1-.64-.62,1.83,1.83,0,0,1-.24-.94A1.93,1.93,0,0,1,295.33,37.08Zm.94.06a.87.87,0,0,0-.24.52h1.66a.89.89,0,0,0-.22-.52.79.79,0,0,0-.61-.23A.78.78,0,0,0,296.27,37.14Z" fill="#fff199"/><path d="M301.61,39.52a1.66,1.66,0,0,1-.62-.64,1.93,1.93,0,0,1,0-1.79,1.68,1.68,0,0,1,.62-.65,2,2,0,0,1,1.9,0,1.61,1.61,0,0,1,.62.65,1.93,1.93,0,0,1,0,1.79,1.59,1.59,0,0,1-.62.64,2,2,0,0,1-1.9,0Zm1.58-.84a1,1,0,0,0,.24-.7,1,1,0,0,0-.24-.7.85.85,0,0,0-1.26,0,1,1,0,0,0-.23.7,1,1,0,0,0,.23.7.83.83,0,0,0,1.26,0Z" fill="#fff199"/><path d="M307.41,37.62a.62.62,0,0,0-.16-.48.63.63,0,0,0-.46-.14.82.82,0,0,0-.44.11,1.14,1.14,0,0,0-.33.28v2.28h-.89V36.29H306v.44a1.44,1.44,0,0,1,.49-.37,1.46,1.46,0,0,1,.69-.16,1,1,0,0,1,1.1,1.08v2.39h-.89Z" fill="#fff199"/><path d="M309.3,35h.89v4.67h-.89Z" fill="#fff199"/><path d="M311.54,40.25a.67.67,0,0,0,.3-.06A.36.36,0,0,0,312,40l.13-.28-1.37-3.43h1l.88,2.35.88-2.35h1l-1.59,3.93a1.15,1.15,0,0,1-.49.63,1.67,1.67,0,0,1-.79.19h-.23a.87.87,0,0,1-.21,0l.13-.8A.67.67,0,0,0,311.54,40.25Z" fill="#fff199"/><path d="M314.7,38.79a.57.57,0,0,1,.4-.16.54.54,0,0,1,.4.16.58.58,0,0,1,.17.4.58.58,0,0,1-.57.57.58.58,0,0,1-.4-.17.54.54,0,0,1-.16-.4A.57.57,0,0,1,314.7,38.79Z" fill="#fff199"/><path d="M240.38,42h3.31v.85h-2.31v1h2.26v.85h-2.26v1.09h2.31v.86h-3.31Z" fill="#fff199"/><path d="M246,45.53l-.77,1.14h-1l1.2-1.74-1.13-1.64h1l.7,1,.7-1h1l-1.13,1.64,1.21,1.74h-1Z" fill="#fff199"/><path d="M248.22,44.06a1.68,1.68,0,0,1,.64-.63,1.87,1.87,0,0,1,.92-.23,1.74,1.74,0,0,1,.82.18,1.4,1.4,0,0,1,.52.43l-.58.55a.8.8,0,0,0-.71-.36.82.82,0,0,0-.66.27,1,1,0,0,0-.26.71,1,1,0,0,0,.26.72.85.85,0,0,0,.66.27.77.77,0,0,0,.4-.1.8.8,0,0,0,.31-.27l.58.54a1.33,1.33,0,0,1-.52.44,1.69,1.69,0,0,1-.82.18,1.87,1.87,0,0,1-.92-.23,1.68,1.68,0,0,1-.64-.63,2,2,0,0,1,0-1.84Z" fill="#fff199"/><path d="M251.8,42h.89v4.67h-.89Z" fill="#fff199"/><path d="M256,46.24a1.48,1.48,0,0,1-.5.37,1.52,1.52,0,0,1-.69.15,1,1,0,0,1-1.09-1.07v-2.4h.89v2.05a.63.63,0,0,0,.16.49.7.7,0,0,0,.46.14.93.93,0,0,0,.44-.11,1,1,0,0,0,.33-.28V43.29h.89v3.38H256Z" fill="#fff199"/><path d="M260.2,46.24a1.43,1.43,0,0,1-.47.38,1.26,1.26,0,0,1-.57.14,1.44,1.44,0,0,1-.77-.21,1.4,1.4,0,0,1-.54-.61,2.18,2.18,0,0,1-.19-.95,2.15,2.15,0,0,1,.19-1,1.54,1.54,0,0,1,.53-.62,1.48,1.48,0,0,1,.78-.22,1.26,1.26,0,0,1,.57.14,1.32,1.32,0,0,1,.47.38V42h.9v4.67h-.9Zm0-1.86a.93.93,0,0,0-.33-.28,1,1,0,0,0-.44-.1.8.8,0,0,0-.62.27,1.23,1.23,0,0,0,0,1.43.8.8,0,0,0,.62.27,1,1,0,0,0,.44-.11.76.76,0,0,0,.33-.28Z" fill="#fff199"/><path d="M262.1,44.08a1.76,1.76,0,0,1,.63-.64,1.68,1.68,0,0,1,.9-.24,1.64,1.64,0,0,1,.88.24,1.48,1.48,0,0,1,.6.66,2.13,2.13,0,0,1,.21,1v.19h-2.51a.89.89,0,0,0,.3.57,1,1,0,0,0,.67.22,1.47,1.47,0,0,0,.5-.09,1.27,1.27,0,0,0,.41-.24l.39.57a1.7,1.7,0,0,1-.62.35,2.5,2.5,0,0,1-.78.12,1.9,1.9,0,0,1-.92-.22,1.76,1.76,0,0,1-.65-.62,1.92,1.92,0,0,1-.23-.94A1.82,1.82,0,0,1,262.1,44.08Zm.94.06a.94.94,0,0,0-.25.52h1.67a.85.85,0,0,0-.23-.52.88.88,0,0,0-1.19,0Z" fill="#fff199"/><path d="M266.18,45.61a1.65,1.65,0,0,0,.53.32,1.5,1.5,0,0,0,.63.14.83.83,0,0,0,.43-.09.29.29,0,0,0,.14-.25.26.26,0,0,0-.17-.25,1.74,1.74,0,0,0-.51-.15c-.27-.06-.49-.11-.67-.17a1,1,0,0,1-.46-.31.82.82,0,0,1-.2-.58.93.93,0,0,1,.17-.53,1,1,0,0,1,.48-.39,1.68,1.68,0,0,1,.74-.15,2.1,2.1,0,0,1,1.36.47l-.35.61a1.11,1.11,0,0,0-.43-.28,1.39,1.39,0,0,0-.57-.12.7.7,0,0,0-.39.09.25.25,0,0,0-.15.23.24.24,0,0,0,.16.22,2.13,2.13,0,0,0,.49.14,4.13,4.13,0,0,1,.68.18,1.07,1.07,0,0,1,.47.32.85.85,0,0,1,.21.61.94.94,0,0,1-.18.56,1,1,0,0,1-.5.39,2.07,2.07,0,0,1-.79.14,2.64,2.64,0,0,1-.84-.14,1.89,1.89,0,0,1-.67-.38Z" fill="#fff199"/><path d="M271.23,44.06a1.62,1.62,0,0,1,.64-.63,1.87,1.87,0,0,1,.92-.23,1.67,1.67,0,0,1,.81.18,1.43,1.43,0,0,1,.53.43l-.58.55a.92.92,0,0,0-1.38-.09,1,1,0,0,0-.25.71,1,1,0,0,0,.25.72.87.87,0,0,0,.66.27.8.8,0,0,0,.41-.1.88.88,0,0,0,.31-.27l.58.54a1.41,1.41,0,0,1-.52.44,1.74,1.74,0,0,1-.82.18,1.87,1.87,0,0,1-.92-.23,1.62,1.62,0,0,1-.64-.63,2,2,0,0,1,0-1.84Z" fill="#fff199"/><path d="M276.89,46.32a1.26,1.26,0,0,1-.45.32,1.59,1.59,0,0,1-.62.12,1.2,1.2,0,0,1-.55-.13,1,1,0,0,1-.62-1,1.08,1.08,0,0,1,.17-.62,1,1,0,0,1,.44-.35,1.38,1.38,0,0,1,.56-.12,1.81,1.81,0,0,1,.63.11,1,1,0,0,1,.44.31V44.5a.47.47,0,0,0-.2-.41.81.81,0,0,0-.54-.16,1.41,1.41,0,0,0-1,.4l-.34-.59a2,2,0,0,1,.68-.4,2.4,2.4,0,0,1,.8-.14,1.77,1.77,0,0,1,1.06.3,1.14,1.14,0,0,1,.41,1v2.18h-.89Zm0-.88a.64.64,0,0,0-.29-.22,1.16,1.16,0,0,0-.42-.08.78.78,0,0,0-.46.14.45.45,0,0,0-.18.38.43.43,0,0,0,.18.36.78.78,0,0,0,.46.14,1.16,1.16,0,0,0,.42-.08.64.64,0,0,0,.29-.22Z" fill="#fff199"/><path d="M278.78,48V43.29h.88v.42a1.4,1.4,0,0,1,.47-.37,1.27,1.27,0,0,1,.58-.14A1.38,1.38,0,0,1,282,44a2.4,2.4,0,0,1,0,1.92,1.38,1.38,0,0,1-.53.61,1.44,1.44,0,0,1-.77.21,1.27,1.27,0,0,1-.58-.13,1.42,1.42,0,0,1-.47-.39V48Zm2.27-3.69a.8.8,0,0,0-.62-.27,1,1,0,0,0-.77.38v1.2a1,1,0,0,0,.34.28,1,1,0,0,0,.43.11.8.8,0,0,0,.62-.27,1.13,1.13,0,0,0,.23-.72A1.08,1.08,0,0,0,281.05,44.27Z" fill="#fff199"/><path d="M286.69,46.32a1.22,1.22,0,0,1-.46.32,1.54,1.54,0,0,1-.61.12,1.24,1.24,0,0,1-.56-.13,1.07,1.07,0,0,1-.44-.38,1,1,0,0,1-.18-.61,1,1,0,0,1,.18-.62,1,1,0,0,1,.44-.35,1.34,1.34,0,0,1,.56-.12,1.71,1.71,0,0,1,.62.11,1,1,0,0,1,.45.31V44.5a.5.5,0,0,0-.2-.41.85.85,0,0,0-.54-.16,1.45,1.45,0,0,0-1,.4l-.33-.59a1.94,1.94,0,0,1,.68-.4,2.35,2.35,0,0,1,.79-.14,1.78,1.78,0,0,1,1.07.3,1.17,1.17,0,0,1,.41,1v2.18h-.89Zm0-.88a.62.62,0,0,0-.3-.22,1.07,1.07,0,0,0-.41-.08.76.76,0,0,0-.46.14.45.45,0,0,0-.18.38.43.43,0,0,0,.18.36.76.76,0,0,0,.46.14,1.07,1.07,0,0,0,.41-.08.62.62,0,0,0,.3-.22Z" fill="#fff199"/><path d="M290.85,44.62a.62.62,0,0,0-.16-.48.63.63,0,0,0-.46-.14.82.82,0,0,0-.44.11,1.14,1.14,0,0,0-.33.28v2.28h-.89V43.29h.89v.44a1.44,1.44,0,0,1,.49-.37,1.46,1.46,0,0,1,.69-.16,1,1,0,0,1,1.1,1.08v2.39h-.89Z" fill="#fff199"/><path d="M295.08,46.24a1.51,1.51,0,0,1-.46.38,1.3,1.3,0,0,1-.58.14,1.44,1.44,0,0,1-.77-.21,1.4,1.4,0,0,1-.54-.61,2.18,2.18,0,0,1-.19-.95,2.15,2.15,0,0,1,.19-1,1.54,1.54,0,0,1,.53-.62,1.48,1.48,0,0,1,.78-.22,1.26,1.26,0,0,1,.57.14,1.32,1.32,0,0,1,.47.38V42h.9v4.67h-.9Zm0-1.86a.85.85,0,0,0-.33-.28,1,1,0,0,0-.44-.1.8.8,0,0,0-.62.27,1.23,1.23,0,0,0,0,1.43.8.8,0,0,0,.62.27,1,1,0,0,0,.44-.11.71.71,0,0,0,.33-.28Z" fill="#fff199"/><path d="M298.65,42h.89v4.67h-.89Z" fill="#fff199"/><path d="M302.59,46.32a1.22,1.22,0,0,1-.46.32,1.51,1.51,0,0,1-.61.12,1.2,1.2,0,0,1-.55-.13,1.1,1.1,0,0,1-.45-.38,1.2,1.2,0,0,1,0-1.23,1,1,0,0,1,.44-.35,1.38,1.38,0,0,1,.56-.12,1.81,1.81,0,0,1,.63.11,1,1,0,0,1,.44.31V44.5a.47.47,0,0,0-.2-.41.83.83,0,0,0-.54-.16,1.45,1.45,0,0,0-1,.4l-.33-.59a2,2,0,0,1,.68-.4,2.35,2.35,0,0,1,.79-.14,1.78,1.78,0,0,1,1.07.3,1.17,1.17,0,0,1,.41,1v2.18h-.89Zm0-.88a.64.64,0,0,0-.29-.22,1.16,1.16,0,0,0-.42-.08.76.76,0,0,0-.46.14.45.45,0,0,0-.18.38.43.43,0,0,0,.18.36.76.76,0,0,0,.46.14,1.16,1.16,0,0,0,.42-.08.64.64,0,0,0,.29-.22Z" fill="#fff199"/><path d="M304.47,42h.89v1.72a1.37,1.37,0,0,1,1.05-.52,1.44,1.44,0,0,1,.77.22,1.47,1.47,0,0,1,.53.62,2.15,2.15,0,0,1,.19,1,2.18,2.18,0,0,1-.19.95,1.38,1.38,0,0,1-.53.61,1.46,1.46,0,0,1-.77.21,1.27,1.27,0,0,1-.58-.14,1.43,1.43,0,0,1-.47-.38v.43h-.89Zm1.22,3.86a1,1,0,0,0,.44.11.8.8,0,0,0,.62-.27,1.19,1.19,0,0,0,0-1.43.8.8,0,0,0-.62-.27.9.9,0,0,0-.44.11.91.91,0,0,0-.33.28v1.2A.89.89,0,0,0,305.69,45.86Z" fill="#fff199"/><path d="M308.73,44.08a1.71,1.71,0,0,1,1.52-.88,1.67,1.67,0,0,1,.89.24,1.52,1.52,0,0,1,.59.66,2,2,0,0,1,.22,1v.19h-2.52a.86.86,0,0,0,.31.57,1,1,0,0,0,.67.22,1.41,1.41,0,0,0,.49-.09,1.17,1.17,0,0,0,.41-.24l.39.57a1.66,1.66,0,0,1-.61.35,2.54,2.54,0,0,1-.78.12,1.87,1.87,0,0,1-.92-.22,1.62,1.62,0,0,1-.65-.62,1.92,1.92,0,0,1,0-1.84Zm.94.06a.88.88,0,0,0-.25.52h1.67a.91.91,0,0,0-.23-.52.79.79,0,0,0-.61-.23A.75.75,0,0,0,309.67,44.14Z" fill="#fff199"/><path d="M312.72,42h.89v4.67h-.89Z" fill="#fff199"/><path d="M314.7,45.79a.58.58,0,0,1,.8,0,.58.58,0,0,1,.17.4.54.54,0,0,1-.17.4.56.56,0,0,1-.8,0,.54.54,0,0,1-.17-.4A.58.58,0,0,1,314.7,45.79Z" fill="#fff199"/></g><g id="rect"><rect width="320" height="50" fill="none"/></g></g></svg>