<svg xmlns="http://www.w3.org/2000/svg" viewBox="0 0 160 600"><title>legal</title><g id="Layer_2" data-name="Layer 2"><g id="Made_from_100_Recycled_Plastic._Bottle_only._Excludes_cap_and" data-name="Made from 100% Recycled Plastic. Bottle only. Excludes cap and" opacity="0.77"><path d="M22,582.44l-1.5,3.84H20l-1.5-3.84v3.84H17.39v-5.34H19l1.29,3.33,1.3-3.33h1.6v5.34H22Z" fill="#4d4748"/><path d="M26.74,585.88a1.47,1.47,0,0,1-.52.37,1.82,1.82,0,0,1-.7.13,1.61,1.61,0,0,1-.64-.14,1.24,1.24,0,0,1-.5-.44,1.18,1.18,0,0,1-.2-.7,1.1,1.1,0,0,1,.2-.7,1.17,1.17,0,0,1,.5-.41,1.56,1.56,0,0,1,.64-.13,2,2,0,0,1,.71.12,1.13,1.13,0,0,1,.51.35v-.53a.53.53,0,0,0-.23-.47,1,1,0,0,0-.61-.18,1.61,1.61,0,0,0-1.13.46l-.39-.68a2.21,2.21,0,0,1,.78-.46,2.85,2.85,0,0,1,.91-.15,2,2,0,0,1,1.22.34,1.3,1.3,0,0,1,.47,1.12v2.5h-1Zm0-1a.74.74,0,0,0-.34-.25,1.19,1.19,0,0,0-.47-.09.87.87,0,0,0-.52.16.5.5,0,0,0-.21.43.49.49,0,0,0,.21.42.86.86,0,0,0,.52.15,1.19,1.19,0,0,0,.47-.09.68.68,0,0,0,.34-.25Z" fill="#4d4748"/><path d="M31.55,585.78a1.63,1.63,0,0,1-.53.45,1.45,1.45,0,0,1-.66.15,1.66,1.66,0,0,1-.88-.24,1.62,1.62,0,0,1-.61-.7,2.41,2.41,0,0,1-.22-1.09,2.38,2.38,0,0,1,.22-1.07,1.64,1.64,0,0,1,.61-.71,1.56,1.56,0,0,1,.88-.25,1.52,1.52,0,0,1,.66.15,1.49,1.49,0,0,1,.53.44v-2h1v5.34h-1Zm0-2.12a.88.88,0,0,0-.37-.31,1.07,1.07,0,0,0-.51-.13.92.92,0,0,0-.7.31,1.23,1.23,0,0,0-.27.82,1.17,1.17,0,0,0,.27.81.89.89,0,0,0,.7.32,1.07,1.07,0,0,0,.51-.13,1,1,0,0,0,.37-.31Z" fill="#4d4748"/><path d="M33.7,583.32a1.91,1.91,0,0,1,.71-.73,2.1,2.1,0,0,1,2,0,1.8,1.8,0,0,1,.68.76,2.45,2.45,0,0,1,.25,1.11v.22H34.5a1,1,0,0,0,.35.65,1.12,1.12,0,0,0,.77.25,1.62,1.62,0,0,0,.56-.1,1.37,1.37,0,0,0,.47-.28l.45.66a2,2,0,0,1-.71.39,2.91,2.91,0,0,1-.89.14,2.14,2.14,0,0,1-1-.25,1.87,1.87,0,0,1-.74-.71,2.1,2.1,0,0,1-.27-1.07A2,2,0,0,1,33.7,583.32Zm1.07.07a1,1,0,0,0-.28.59h1.9a.93.93,0,0,0-.26-.59.87.87,0,0,0-.69-.27A.85.85,0,0,0,34.77,583.39Z" fill="#4d4748"/><path d="M40.38,583.3h-.64v-.89h.64v-.21a1.34,1.34,0,0,1,.37-1,1.27,1.27,0,0,1,.94-.36,1.61,1.61,0,0,1,.73.16l-.2.72a.67.67,0,0,0-.33-.08.43.43,0,0,0-.35.15.6.6,0,0,0-.13.42v.19h.78v.89h-.78v3h-1Z" fill="#4d4748"/><path d="M42.86,582.41h1v.53a1.75,1.75,0,0,1,.55-.44,1.41,1.41,0,0,1,.68-.18v1a1.23,1.23,0,0,0-.82.1.91.91,0,0,0-.41.31v2.56h-1Z" fill="#4d4748"/><path d="M46.53,586.11a1.81,1.81,0,0,1-.71-.74,2.21,2.21,0,0,1,0-2,1.81,1.81,0,0,1,.71-.74,2.32,2.32,0,0,1,2.17,0,1.87,1.87,0,0,1,.71.74,2.21,2.21,0,0,1,0,2,1.87,1.87,0,0,1-.71.74,2.32,2.32,0,0,1-2.17,0Zm1.8-1a1.32,1.32,0,0,0,0-1.6.87.87,0,0,0-.72-.33.88.88,0,0,0-.72.33,1.36,1.36,0,0,0,0,1.6.88.88,0,0,0,.72.33A.87.87,0,0,0,48.33,585.15Z" fill="#4d4748"/><path d="M55.31,583.84a.69.69,0,0,0-.14-.45.54.54,0,0,0-.44-.17.88.88,0,0,0-.46.14,1.27,1.27,0,0,0-.34.31v2.61h-1v-2.44a.69.69,0,0,0-.14-.45.54.54,0,0,0-.44-.17.82.82,0,0,0-.45.14,1.08,1.08,0,0,0-.35.32v2.6h-1v-3.87h1v.51a1.49,1.49,0,0,1,.51-.41,1.56,1.56,0,0,1,.76-.19,1.22,1.22,0,0,1,.69.18,1,1,0,0,1,.38.52,1.47,1.47,0,0,1,.55-.49,1.52,1.52,0,0,1,.78-.21,1,1,0,0,1,1.13,1.17v2.79h-1Z" fill="#4d4748"/><path d="M60.5,582.41l-.89.9-.64-.68,1.68-1.69h1v5.34H60.5Z" fill="#4d4748"/><path d="M62.88,582.26a2.33,2.33,0,0,1,.74-1,1.92,1.92,0,0,1,1.22-.39,2,2,0,0,1,1.23.39,2.41,2.41,0,0,1,.74,1,3.76,3.76,0,0,1,.24,1.35,3.81,3.81,0,0,1-.24,1.36,2.41,2.41,0,0,1-.74,1,2,2,0,0,1-1.23.39,1.92,1.92,0,0,1-1.22-.39,2.33,2.33,0,0,1-.74-1,3.61,3.61,0,0,1-.25-1.36A3.56,3.56,0,0,1,62.88,582.26Zm2.76.08a.91.91,0,0,0-1.6,0,2.71,2.71,0,0,0-.25,1.27,2.75,2.75,0,0,0,.25,1.28.91.91,0,0,0,1.6,0,2.75,2.75,0,0,0,.25-1.28A2.71,2.71,0,0,0,65.64,582.34Z" fill="#4d4748"/><path d="M68,582.26a2.33,2.33,0,0,1,.74-1,2.12,2.12,0,0,1,2.45,0,2.33,2.33,0,0,1,.74,1,3.76,3.76,0,0,1,.24,1.35A3.81,3.81,0,0,1,72,585a2.33,2.33,0,0,1-.74,1,2.12,2.12,0,0,1-2.45,0,2.33,2.33,0,0,1-.74-1,3.81,3.81,0,0,1-.24-1.36A3.76,3.76,0,0,1,68,582.26Zm2.76.08a.9.9,0,0,0-1.59,0,2.58,2.58,0,0,0-.26,1.27,2.62,2.62,0,0,0,.26,1.28.9.9,0,0,0,1.59,0,2.75,2.75,0,0,0,.25-1.28A2.71,2.71,0,0,0,70.8,582.34Z" fill="#4d4748"/><path d="M73,581.52a1.26,1.26,0,0,1,.48-.49,1.39,1.39,0,0,1,.71-.18,1.41,1.41,0,0,1,.71.18,1.19,1.19,0,0,1,.48.49,1.4,1.4,0,0,1,.17.68,1.36,1.36,0,0,1-.17.67,1.15,1.15,0,0,1-.48.47,1.41,1.41,0,0,1-.71.18,1.39,1.39,0,0,1-.71-.18,1.21,1.21,0,0,1-.48-.47,1.35,1.35,0,0,1-.16-.67A1.39,1.39,0,0,1,73,581.52Zm1.64.16a.57.57,0,0,0-.45-.19.59.59,0,0,0-.46.19.73.73,0,0,0-.17.52.7.7,0,0,0,.18.5.58.58,0,0,0,.45.19.57.57,0,0,0,.45-.19.68.68,0,0,0,.18-.5A.73.73,0,0,0,74.59,581.68Zm2.44-.74h.6l-3.41,5.34h-.6Zm-1.14,3.43a1.17,1.17,0,0,1,.48-.48,1.47,1.47,0,0,1,1.41,0,1.17,1.17,0,0,1,.48.48,1.36,1.36,0,0,1,.17.69,1.29,1.29,0,0,1-.17.67,1.23,1.23,0,0,1-.48.48,1.55,1.55,0,0,1-1.41,0,1.23,1.23,0,0,1-.48-.48,1.39,1.39,0,0,1-.17-.67A1.47,1.47,0,0,1,75.89,584.37Zm1.64.16a.63.63,0,0,0-.46-.19.62.62,0,0,0-.45.19.76.76,0,0,0-.18.53.72.72,0,0,0,.18.51.62.62,0,0,0,.45.19.63.63,0,0,0,.46-.19.72.72,0,0,0,.18-.51A.76.76,0,0,0,77.53,584.53Z" fill="#4d4748"/><path d="M83.18,584.37h-.83v1.91H81.21v-5.34h2.5a1.93,1.93,0,0,1,1,.22,1.52,1.52,0,0,1,.62.61,1.78,1.78,0,0,1,.22.89,1.67,1.67,0,0,1-.34,1.07,1.53,1.53,0,0,1-.83.52l1.2,2h-1.3Zm.93-2.25a.84.84,0,0,0-.57-.2H82.35v1.47h1.19a.84.84,0,0,0,.57-.2.71.71,0,0,0,.23-.54A.69.69,0,0,0,84.11,582.12Z" fill="#4d4748"/><path d="M86.38,583.32a2,2,0,0,1,2.75-.74,1.8,1.8,0,0,1,.68.76,2.33,2.33,0,0,1,.25,1.11v.22H87.19a1,1,0,0,0,.34.65,1.13,1.13,0,0,0,.77.25,1.62,1.62,0,0,0,.56-.1,1.28,1.28,0,0,0,.47-.28l.45.66a1.87,1.87,0,0,1-.71.39,2.84,2.84,0,0,1-.88.14,2.21,2.21,0,0,1-1.06-.25,1.94,1.94,0,0,1-.74-.71,2.21,2.21,0,0,1,0-2.1Zm1.07.07a1,1,0,0,0-.28.59h1.9a.93.93,0,0,0-.26-.59,1,1,0,0,0-1.36,0Z" fill="#4d4748"/><path d="M90.94,583.3a1.87,1.87,0,0,1,.73-.72,2,2,0,0,1,1-.26,2,2,0,0,1,.93.19,1.58,1.58,0,0,1,.6.5l-.66.63a.93.93,0,0,0-.82-.42,1,1,0,0,0-.75.31,1.13,1.13,0,0,0-.3.82,1.11,1.11,0,0,0,.3.81,1,1,0,0,0,.75.32,1,1,0,0,0,.47-.11,1,1,0,0,0,.35-.31l.66.62a1.62,1.62,0,0,1-.59.5,2.07,2.07,0,0,1-.94.2,2.15,2.15,0,0,1-1-.26,1.87,1.87,0,0,1-.73-.72,2.25,2.25,0,0,1,0-2.1Z" fill="#4d4748"/><path d="M95.49,586.94a.78.78,0,0,0,.33-.06.48.48,0,0,0,.2-.22l.15-.33-1.57-3.92h1.09l1,2.69,1-2.69h1.1L97,586.91a1.29,1.29,0,0,1-.56.71,2,2,0,0,1-.9.23l-.27,0-.24,0,.16-.91A.79.79,0,0,0,95.49,586.94Z" fill="#4d4748"/><path d="M99.29,583.3a1.87,1.87,0,0,1,.73-.72,2.06,2.06,0,0,1,1.06-.26,2,2,0,0,1,.92.19,1.58,1.58,0,0,1,.6.5l-.66.63a.93.93,0,0,0-.82-.42,1,1,0,0,0-.75.31,1.13,1.13,0,0,0-.29.82,1.1,1.1,0,0,0,.29.81,1,1,0,0,0,.75.32,1,1,0,0,0,.47-.11,1,1,0,0,0,.35-.31l.66.62a1.62,1.62,0,0,1-.59.5,2.06,2.06,0,0,1-.93.2,2.16,2.16,0,0,1-1.06-.26,1.87,1.87,0,0,1-.73-.72,2.25,2.25,0,0,1,0-2.1Z" fill="#4d4748"/><path d="M103.34,580.94h1v5.34h-1Z" fill="#4d4748"/><path d="M105.5,583.32a2,2,0,0,1,.71-.73,2,2,0,0,1,1-.27,2,2,0,0,1,1,.26,1.82,1.82,0,0,1,.69.76,2.45,2.45,0,0,1,.24,1.11v.22h-2.87a1,1,0,0,0,.34.65,1.15,1.15,0,0,0,.77.25,1.63,1.63,0,0,0,.57-.1,1.32,1.32,0,0,0,.46-.28l.45.66a1.9,1.9,0,0,1-.7.39,3,3,0,0,1-.89.14,2.21,2.21,0,0,1-1.06-.25,1.94,1.94,0,0,1-.74-.71,2.29,2.29,0,0,1,0-2.1Zm1.07.07a1,1,0,0,0-.28.59h1.91a1.05,1.05,0,0,0-.26-.59,1,1,0,0,0-1.37,0Z" fill="#4d4748"/><path d="M112.7,585.78a1.74,1.74,0,0,1-.53.45,1.52,1.52,0,0,1-.66.15,1.62,1.62,0,0,1-1.5-.94,2.55,2.55,0,0,1-.22-1.09,2.52,2.52,0,0,1,.22-1.07,1.64,1.64,0,0,1,.61-.71,1.59,1.59,0,0,1,.89-.25,1.44,1.44,0,0,1,.65.15,1.52,1.52,0,0,1,.54.44v-2h1v5.34h-1Zm0-2.12a.91.91,0,0,0-.38-.31,1,1,0,0,0-.5-.13.9.9,0,0,0-.7.31,1.18,1.18,0,0,0-.28.82,1.13,1.13,0,0,0,.28.81.88.88,0,0,0,.7.32,1,1,0,0,0,.5-.13,1,1,0,0,0,.38-.31Z" fill="#4d4748"/><path d="M116.8,580.94h2.5a2,2,0,0,1,1,.23,1.65,1.65,0,0,1,.61.62,1.81,1.81,0,0,1,.21.87,1.77,1.77,0,0,1-.21.86,1.54,1.54,0,0,1-.62.62,2,2,0,0,1-1,.23h-1.36v1.91H116.8Zm2.91,1.18a.83.83,0,0,0-.56-.2h-1.21v1.47h1.21a.82.82,0,0,0,.56-.2.7.7,0,0,0,.22-.54A.68.68,0,0,0,119.71,582.12Z" fill="#4d4748"/><path d="M121.87,580.94h1v5.34h-1Z" fill="#4d4748"/><path d="M126.34,585.88a1.47,1.47,0,0,1-.52.37,1.82,1.82,0,0,1-.7.13,1.61,1.61,0,0,1-.64-.14,1.24,1.24,0,0,1-.5-.44,1.18,1.18,0,0,1-.2-.7,1.1,1.1,0,0,1,.2-.7,1.17,1.17,0,0,1,.5-.41,1.56,1.56,0,0,1,.64-.13,2,2,0,0,1,.71.12,1.13,1.13,0,0,1,.51.35v-.53a.53.53,0,0,0-.23-.47,1,1,0,0,0-.61-.18,1.61,1.61,0,0,0-1.13.46l-.39-.68a2.21,2.21,0,0,1,.78-.46,2.8,2.8,0,0,1,.91-.15,2,2,0,0,1,1.22.34,1.3,1.3,0,0,1,.47,1.12v2.5h-1Zm0-1a.74.74,0,0,0-.34-.25,1.19,1.19,0,0,0-.47-.09.87.87,0,0,0-.52.16.5.5,0,0,0-.21.43.49.49,0,0,0,.21.42.86.86,0,0,0,.52.15,1.19,1.19,0,0,0,.47-.09.68.68,0,0,0,.34-.25Z" fill="#4d4748"/><path d="M128.59,585.07a2.23,2.23,0,0,0,1.34.53.9.9,0,0,0,.48-.11.32.32,0,0,0,.17-.29.31.31,0,0,0-.2-.28,2,2,0,0,0-.58-.18,6.18,6.18,0,0,1-.77-.19,1.33,1.33,0,0,1-.53-.35,1,1,0,0,1-.22-.67,1,1,0,0,1,.19-.6,1.24,1.24,0,0,1,.55-.45,2,2,0,0,1,.84-.16,2.38,2.38,0,0,1,1.56.53l-.4.69a1.54,1.54,0,0,0-.5-.32,1.75,1.75,0,0,0-.65-.13.82.82,0,0,0-.44.1.29.29,0,0,0-.17.26.28.28,0,0,0,.18.26,3.09,3.09,0,0,0,.56.16,6.22,6.22,0,0,1,.78.2,1.31,1.31,0,0,1,.54.37,1,1,0,0,1,.23.7,1.12,1.12,0,0,1-.19.64,1.32,1.32,0,0,1-.58.44,2.23,2.23,0,0,1-.9.16,2.76,2.76,0,0,1-1-.16,2.22,2.22,0,0,1-.77-.44Z" fill="#4d4748"/><path d="M132.93,586.11a1.07,1.07,0,0,1-.28-.79v-2H132v-.89h.64v-1h1v1h.78v.89h-.78v1.75a.52.52,0,0,0,.09.31.32.32,0,0,0,.26.12l.21,0a.58.58,0,0,0,.14-.08l.22.76a1.23,1.23,0,0,1-.85.25A1.14,1.14,0,0,1,132.93,586.11Z" fill="#4d4748"/><path d="M135.36,581.67a.61.61,0,0,1-.18-.43.61.61,0,0,1,1-.43.57.57,0,0,1,.18.43.61.61,0,0,1-.18.43.6.6,0,0,1-.86,0Zm-.07.74h1v3.87h-1Z" fill="#4d4748"/><path d="M137.42,583.3a1.87,1.87,0,0,1,.73-.72,2,2,0,0,1,1-.26,2,2,0,0,1,.93.19,1.58,1.58,0,0,1,.6.5l-.66.63a.93.93,0,0,0-.82-.42,1,1,0,0,0-.75.31,1.13,1.13,0,0,0-.3.82,1.11,1.11,0,0,0,.3.81,1,1,0,0,0,.75.32,1,1,0,0,0,.47-.11,1.14,1.14,0,0,0,.35-.31l.66.62a1.62,1.62,0,0,1-.59.5,2.07,2.07,0,0,1-.94.2,2.15,2.15,0,0,1-1-.26,1.87,1.87,0,0,1-.73-.72,2.25,2.25,0,0,1,0-2.1Z" fill="#4d4748"/><path d="M141.64,585.28a.63.63,0,0,1,.46-.2.61.61,0,0,1,.45.2.62.62,0,0,1,0,.91.6.6,0,0,1-.45.19.65.65,0,0,1-.65-.65A.61.61,0,0,1,141.64,585.28Z" fill="#4d4748"/><path d="M15.27,588.94h2.8a1.68,1.68,0,0,1,.84.19,1.24,1.24,0,0,1,.52.49,1.36,1.36,0,0,1,.18.68,1.3,1.3,0,0,1-.26.82,1.16,1.16,0,0,1-.66.41,1.07,1.07,0,0,1,.73.44,1.34,1.34,0,0,1,.29.87,1.4,1.4,0,0,1-.4,1,1.58,1.58,0,0,1-1.15.41H15.27Zm2.56,2.14a.61.61,0,0,0,.45-.16.58.58,0,0,0,.17-.43.57.57,0,0,0-.17-.41.64.64,0,0,0-.45-.17H16.4v1.17Zm0,2.23a.72.72,0,0,0,.5-.17.62.62,0,0,0,.18-.46.61.61,0,0,0-.18-.45.68.68,0,0,0-.5-.18H16.4v1.26Z" fill="#4d4748"/><path d="M21.39,594.11a1.9,1.9,0,0,1-.72-.74,2.29,2.29,0,0,1,0-2,1.9,1.9,0,0,1,.72-.74,2.11,2.11,0,0,1,1.08-.27,2.09,2.09,0,0,1,1.08.27,1.9,1.9,0,0,1,.72.74,2.21,2.21,0,0,1,0,2,1.9,1.9,0,0,1-.72.74,2.09,2.09,0,0,1-1.08.27A2.11,2.11,0,0,1,21.39,594.11Zm1.8-1a1.32,1.32,0,0,0,0-1.6.88.88,0,0,0-.72-.33.86.86,0,0,0-.72.33,1.32,1.32,0,0,0,0,1.6.86.86,0,0,0,.72.33A.88.88,0,0,0,23.19,593.15Z" fill="#4d4748"/><path d="M25.86,594.11a1,1,0,0,1-.28-.79v-2h-.64v-.89h.64v-1h1v1h.79v.89H26.6v1.75a.46.46,0,0,0,.1.31.31.31,0,0,0,.26.12.64.64,0,0,0,.2,0l.15-.08.21.76a1.22,1.22,0,0,1-.85.25A1.13,1.13,0,0,1,25.86,594.11Z" fill="#4d4748"/><path d="M28.8,594.11a1,1,0,0,1-.28-.79v-2h-.64v-.89h.64v-1h1v1h.79v.89h-.79v1.75a.46.46,0,0,0,.1.31.3.3,0,0,0,.25.12.66.66,0,0,0,.21,0l.15-.08.21.76a1.22,1.22,0,0,1-.85.25A1.12,1.12,0,0,1,28.8,594.11Z" fill="#4d4748"/><path d="M31.18,588.94h1v5.34h-1Z" fill="#4d4748"/><path d="M33.33,591.32a2,2,0,0,1,1.75-1,2,2,0,0,1,1,.26,1.8,1.8,0,0,1,.68.76,2.45,2.45,0,0,1,.24,1.11v.22H34.14a1,1,0,0,0,.35.65,1.11,1.11,0,0,0,.76.25,1.63,1.63,0,0,0,.57-.1,1.37,1.37,0,0,0,.47-.28l.44.66a1.82,1.82,0,0,1-.7.39,2.91,2.91,0,0,1-.89.14,2.14,2.14,0,0,1-1-.25,1.81,1.81,0,0,1-.74-.71,2.25,2.25,0,0,1,0-2.1Zm1.08.07a1,1,0,0,0-.28.59H36a1,1,0,0,0-.26-.59.87.87,0,0,0-.69-.27A.85.85,0,0,0,34.41,591.39Z" fill="#4d4748"/><path d="M40.51,594.11a1.81,1.81,0,0,1-.71-.74,2.21,2.21,0,0,1,0-2,1.81,1.81,0,0,1,.71-.74,2.32,2.32,0,0,1,2.17,0,1.87,1.87,0,0,1,.71.74,2.21,2.21,0,0,1,0,2,1.87,1.87,0,0,1-.71.74,2.32,2.32,0,0,1-2.17,0Zm1.8-1a1.32,1.32,0,0,0,0-1.6.87.87,0,0,0-.72-.33.88.88,0,0,0-.72.33,1.36,1.36,0,0,0,0,1.6.88.88,0,0,0,.72.33A.87.87,0,0,0,42.31,593.15Z" fill="#4d4748"/><path d="M47.11,591.94a.73.73,0,0,0-.19-.55.77.77,0,0,0-.53-.17,1.06,1.06,0,0,0-.5.13,1.23,1.23,0,0,0-.38.33v2.6h-1v-3.87h1v.51a1.77,1.77,0,0,1,.56-.43,1.88,1.88,0,0,1,.8-.17,1.25,1.25,0,0,1,.94.33,1.23,1.23,0,0,1,.31.9v2.73h-1Z" fill="#4d4748"/><path d="M49.22,588.94h1v5.34h-1Z" fill="#4d4748"/><path d="M51.76,594.94a.78.78,0,0,0,.33-.06.48.48,0,0,0,.2-.22l.15-.33-1.57-3.92H52l1,2.69,1-2.69h1.1l-1.82,4.5a1.29,1.29,0,0,1-.56.71,2,2,0,0,1-.9.23l-.27,0-.24,0,.16-.91A.79.79,0,0,0,51.76,594.94Z" fill="#4d4748"/><path d="M55.33,593.28a.61.61,0,0,1,.45-.2.63.63,0,0,1,.46.2.61.61,0,0,1,.19.45.65.65,0,0,1-.65.65.6.6,0,0,1-.45-.19.62.62,0,0,1,0-.91Z" fill="#4d4748"/><path d="M59.38,588.94h3.78v1H60.52v1.16H63.1v1H60.52v1.24h2.64v1H59.38Z" fill="#4d4748"/><path d="M65.74,593l-.89,1.31H63.72l1.37-2-1.29-1.88h1.14l.8,1.2.79-1.2h1.13l-1.29,1.88,1.38,2H66.62Z" fill="#4d4748"/><path d="M68.27,591.3a1.87,1.87,0,0,1,.73-.72,2.06,2.06,0,0,1,1.06-.26,2,2,0,0,1,.92.19,1.58,1.58,0,0,1,.6.5l-.66.63a.93.93,0,0,0-.82-.42,1,1,0,0,0-.75.31,1.13,1.13,0,0,0-.29.82,1.1,1.1,0,0,0,.29.81,1,1,0,0,0,.75.32,1,1,0,0,0,.47-.11,1,1,0,0,0,.35-.31l.66.62a1.62,1.62,0,0,1-.59.5,2.06,2.06,0,0,1-.93.2,2.16,2.16,0,0,1-1.06-.26,1.87,1.87,0,0,1-.73-.72,2.25,2.25,0,0,1,0-2.1Z" fill="#4d4748"/><path d="M72.32,588.94h1v5.34h-1Z" fill="#4d4748"/><path d="M77.05,593.79a1.92,1.92,0,0,1-.57.42,1.83,1.83,0,0,1-.79.17,1.27,1.27,0,0,1-.94-.32,1.22,1.22,0,0,1-.31-.9v-2.75h1v2.35a.71.71,0,0,0,.18.55.77.77,0,0,0,.53.17,1.06,1.06,0,0,0,.5-.13,1.32,1.32,0,0,0,.38-.31v-2.63h1v3.87h-1Z" fill="#4d4748"/><path d="M81.86,593.78a1.67,1.67,0,0,1-.54.45,1.45,1.45,0,0,1-.66.15,1.66,1.66,0,0,1-.88-.24,1.62,1.62,0,0,1-.61-.7,2.41,2.41,0,0,1-.22-1.09,2.38,2.38,0,0,1,.22-1.07,1.64,1.64,0,0,1,.61-.71,1.56,1.56,0,0,1,.88-.25,1.51,1.51,0,0,1,1.2.59v-2h1v5.34h-1Zm0-2.12a1,1,0,0,0-.38-.31,1,1,0,0,0-.5-.13.92.92,0,0,0-.71.31,1.23,1.23,0,0,0-.27.82,1.17,1.17,0,0,0,.27.81.9.9,0,0,0,.71.32,1,1,0,0,0,.5-.13,1.08,1.08,0,0,0,.38-.31Z" fill="#4d4748"/><path d="M84,591.32a2,2,0,0,1,2.75-.74,1.8,1.8,0,0,1,.68.76,2.33,2.33,0,0,1,.25,1.11v.22H84.81a1,1,0,0,0,.34.65,1.13,1.13,0,0,0,.77.25,1.62,1.62,0,0,0,.56-.1,1.28,1.28,0,0,0,.47-.28l.45.66a1.87,1.87,0,0,1-.71.39,2.89,2.89,0,0,1-.88.14,2.18,2.18,0,0,1-1.06-.25,1.87,1.87,0,0,1-.74-.71,2.21,2.21,0,0,1,0-2.1Zm1.07.07a1,1,0,0,0-.28.59h1.9a.93.93,0,0,0-.26-.59.86.86,0,0,0-.69-.27A.85.85,0,0,0,85.07,591.39Z" fill="#4d4748"/><path d="M88.61,593.07a2.19,2.19,0,0,0,.61.37,2.05,2.05,0,0,0,.73.16.9.9,0,0,0,.48-.11.32.32,0,0,0,.17-.29.31.31,0,0,0-.19-.28,2.19,2.19,0,0,0-.59-.18,6.18,6.18,0,0,1-.77-.19,1.23,1.23,0,0,1-.52-.35.94.94,0,0,1-.23-.67,1,1,0,0,1,.19-.6,1.3,1.3,0,0,1,.55-.45,2,2,0,0,1,.85-.16,2.42,2.42,0,0,1,1.56.53l-.41.69a1.49,1.49,0,0,0-.49-.32,1.85,1.85,0,0,0-.66-.13.82.82,0,0,0-.44.1.28.28,0,0,0-.16.26.28.28,0,0,0,.18.26,2.94,2.94,0,0,0,.55.16,6.22,6.22,0,0,1,.78.2,1.25,1.25,0,0,1,.54.37,1,1,0,0,1,.23.7,1.12,1.12,0,0,1-.19.64,1.32,1.32,0,0,1-.58.44,2.23,2.23,0,0,1-.9.16,2.8,2.8,0,0,1-1-.16,2.22,2.22,0,0,1-.77-.44Z" fill="#4d4748"/><path d="M94.39,591.3a1.87,1.87,0,0,1,.73-.72,2,2,0,0,1,1-.26,2,2,0,0,1,.93.19,1.58,1.58,0,0,1,.6.5l-.66.63a.93.93,0,0,0-.82-.42,1,1,0,0,0-.75.31,1.13,1.13,0,0,0-.3.82,1.11,1.11,0,0,0,.3.81,1,1,0,0,0,.75.32,1,1,0,0,0,.47-.11,1,1,0,0,0,.35-.31l.66.62a1.62,1.62,0,0,1-.59.5,2.07,2.07,0,0,1-.94.2,2.15,2.15,0,0,1-1-.26,1.87,1.87,0,0,1-.73-.72,2.25,2.25,0,0,1,0-2.1Z" fill="#4d4748"/><path d="M100.83,593.88a1.52,1.52,0,0,1-.53.37,1.75,1.75,0,0,1-.7.13,1.56,1.56,0,0,1-.63-.14,1.21,1.21,0,0,1-.51-.44,1.25,1.25,0,0,1-.2-.7A1.15,1.15,0,0,1,99,592a1.59,1.59,0,0,1,.64-.13,2.05,2.05,0,0,1,.72.12,1.26,1.26,0,0,1,.51.35v-.53a.56.56,0,0,0-.23-.47,1,1,0,0,0-.62-.18,1.61,1.61,0,0,0-1.13.46l-.38-.68a2.21,2.21,0,0,1,.78-.46,2.76,2.76,0,0,1,.91-.15,2,2,0,0,1,1.21.34,1.28,1.28,0,0,1,.47,1.12v2.5h-1Zm0-1a.74.74,0,0,0-.34-.25,1.28,1.28,0,0,0-.48-.09.87.87,0,0,0-.52.16.5.5,0,0,0-.2.43.48.48,0,0,0,.2.42.86.86,0,0,0,.52.15,1.28,1.28,0,0,0,.48-.09.68.68,0,0,0,.34-.25Z" fill="#4d4748"/><path d="M102.94,595.75v-5.34h1v.49a1.55,1.55,0,0,1,.53-.43,1.52,1.52,0,0,1,.66-.15,1.67,1.67,0,0,1,.89.24,1.63,1.63,0,0,1,.6.69,2.84,2.84,0,0,1,0,2.19,1.6,1.6,0,0,1-.6.7,1.67,1.67,0,0,1-.89.24,1.44,1.44,0,0,1-.65-.15,1.5,1.5,0,0,1-.54-.44v2Zm2.6-4.22a.91.91,0,0,0-.71-.31,1,1,0,0,0-.49.13,1.1,1.1,0,0,0-.38.31V593a1.1,1.1,0,0,0,.38.31,1.16,1.16,0,0,0,.49.13.88.88,0,0,0,.71-.32,1.18,1.18,0,0,0,.27-.81A1.21,1.21,0,0,0,105.54,591.53Z" fill="#4d4748"/><path d="M112,593.88a1.57,1.57,0,0,1-.52.37,1.82,1.82,0,0,1-.7.13,1.61,1.61,0,0,1-.64-.14,1.34,1.34,0,0,1-.51-.44,1.25,1.25,0,0,1-.2-.7,1.16,1.16,0,0,1,.2-.7,1.19,1.19,0,0,1,.51-.41,1.53,1.53,0,0,1,.64-.13,2,2,0,0,1,.71.12,1.26,1.26,0,0,1,.51.35v-.53a.53.53,0,0,0-.23-.47,1,1,0,0,0-.62-.18,1.58,1.58,0,0,0-1.12.46l-.39-.68a2.21,2.21,0,0,1,.78-.46,2.76,2.76,0,0,1,.91-.15,2,2,0,0,1,1.22.34,1.3,1.3,0,0,1,.47,1.12v2.5h-1Zm0-1a.74.74,0,0,0-.34-.25,1.23,1.23,0,0,0-.47-.09.85.85,0,0,0-.52.16.5.5,0,0,0-.21.43.49.49,0,0,0,.21.42.84.84,0,0,0,.52.15,1.23,1.23,0,0,0,.47-.09.68.68,0,0,0,.34-.25Z" fill="#4d4748"/><path d="M116.72,591.94a.69.69,0,0,0-.19-.55.77.77,0,0,0-.53-.17,1.06,1.06,0,0,0-.5.13,1.23,1.23,0,0,0-.38.33v2.6h-1v-3.87h1v.51a1.77,1.77,0,0,1,.56-.43,1.88,1.88,0,0,1,.8-.17,1.25,1.25,0,0,1,.94.33,1.23,1.23,0,0,1,.31.9v2.73h-1Z" fill="#4d4748"/><path d="M121.51,593.78a1.63,1.63,0,0,1-.53.45,1.49,1.49,0,0,1-.66.15,1.66,1.66,0,0,1-.88-.24,1.62,1.62,0,0,1-.61-.7,2.41,2.41,0,0,1-.22-1.09,2.38,2.38,0,0,1,.22-1.07,1.64,1.64,0,0,1,.61-.71,1.56,1.56,0,0,1,.88-.25,1.52,1.52,0,0,1,.66.15,1.58,1.58,0,0,1,.53.44v-2h1v5.34h-1Zm0-2.12a.88.88,0,0,0-.37-.31,1.07,1.07,0,0,0-.51-.13.9.9,0,0,0-.7.31,1.23,1.23,0,0,0-.27.82,1.17,1.17,0,0,0,.27.81.88.88,0,0,0,.7.32,1.07,1.07,0,0,0,.51-.13,1,1,0,0,0,.37-.31Z" fill="#4d4748"/><path d="M125.59,588.94h1v5.34h-1Z" fill="#4d4748"/><path d="M130.06,593.88a1.47,1.47,0,0,1-.52.37,1.82,1.82,0,0,1-.7.13,1.61,1.61,0,0,1-.64-.14,1.24,1.24,0,0,1-.5-.44,1.18,1.18,0,0,1-.2-.7,1.1,1.1,0,0,1,.2-.7,1.17,1.17,0,0,1,.5-.41,1.56,1.56,0,0,1,.64-.13,2,2,0,0,1,.71.12,1.13,1.13,0,0,1,.51.35v-.53a.53.53,0,0,0-.23-.47,1,1,0,0,0-.61-.18,1.59,1.59,0,0,0-1.13.46l-.39-.68a2.21,2.21,0,0,1,.78-.46,2.8,2.8,0,0,1,.91-.15,2,2,0,0,1,1.22.34,1.3,1.3,0,0,1,.47,1.12v2.5h-1Zm0-1a.74.74,0,0,0-.34-.25,1.19,1.19,0,0,0-.47-.09.87.87,0,0,0-.52.16.5.5,0,0,0-.21.43.49.49,0,0,0,.21.42.86.86,0,0,0,.52.15,1.19,1.19,0,0,0,.47-.09.68.68,0,0,0,.34-.25Z" fill="#4d4748"/><path d="M132.18,588.94h1v2a1.49,1.49,0,0,1,.53-.44,1.52,1.52,0,0,1,.66-.15,1.56,1.56,0,0,1,.88.25,1.64,1.64,0,0,1,.61.71,2.38,2.38,0,0,1,.22,1.07,2.41,2.41,0,0,1-.22,1.09,1.62,1.62,0,0,1-.61.7,1.66,1.66,0,0,1-.88.24,1.45,1.45,0,0,1-.66-.15,1.63,1.63,0,0,1-.53-.45v.5h-1Zm1.39,4.41a1,1,0,0,0,.5.13.92.92,0,0,0,.71-.31,1.21,1.21,0,0,0,.27-.82,1.23,1.23,0,0,0-.27-.82.92.92,0,0,0-.71-.31,1,1,0,0,0-.5.13,1,1,0,0,0-.37.32V593A.88.88,0,0,0,133.57,593.35Z" fill="#4d4748"/><path d="M137,591.32a2,2,0,0,1,2.75-.74,1.8,1.8,0,0,1,.68.76,2.33,2.33,0,0,1,.25,1.11v.22h-2.87a1,1,0,0,0,.34.65,1.13,1.13,0,0,0,.77.25,1.62,1.62,0,0,0,.56-.1,1.28,1.28,0,0,0,.47-.28l.45.66a1.87,1.87,0,0,1-.71.39,2.89,2.89,0,0,1-.88.14,2.21,2.21,0,0,1-1.06-.25,1.94,1.94,0,0,1-.74-.71,2.21,2.21,0,0,1,0-2.1Zm1.07.07a1,1,0,0,0-.28.59h1.9a.93.93,0,0,0-.26-.59,1,1,0,0,0-1.36,0Z" fill="#4d4748"/><path d="M141.54,588.94h1v5.34h-1Z" fill="#4d4748"/><path d="M143.77,593.28a.62.62,0,0,1,.91,0,.61.61,0,0,1,.19.45.65.65,0,0,1-.65.65.61.61,0,0,1-.45-.19.62.62,0,0,1-.19-.46A.61.61,0,0,1,143.77,593.28Z" fill="#4d4748"/></g><g id="rect"><rect width="160" height="600" fill="none"/></g></g></svg>