<svg xmlns="http://www.w3.org/2000/svg" viewBox="0 0 300 250"><title>cta</title><g id="Layer_2" data-name="Layer 2"><g id="rect"><rect width="300" height="250" fill="none"/></g><g id="button"><g id="Rounded_Rectangle_1" data-name="Rounded Rectangle 1"><rect x="182.28" y="201.19" width="97.09" height="27.53" rx="4" fill="#ffd655"/></g><g id="Learn_More" data-name="Learn More"><path d="M193.54,209.22h2.13v8.13h4.22v1.88h-6.35Z" fill="#fa1111"/><path d="M201.21,213.69a3.57,3.57,0,0,1,1.33-1.37,3.66,3.66,0,0,1,1.94-.52,3.52,3.52,0,0,1,1.89.51,3.31,3.31,0,0,1,1.28,1.41,4.44,4.44,0,0,1,.46,2.07v.42h-5.39a1.89,1.89,0,0,0,.65,1.21,2.08,2.08,0,0,0,1.44.49,3.1,3.1,0,0,0,1.06-.2,2.63,2.63,0,0,0,.88-.52l.83,1.23a3.52,3.52,0,0,1-1.32.74,5.11,5.11,0,0,1-1.66.26,4.08,4.08,0,0,1-2-.47,3.45,3.45,0,0,1-1.39-1.34,4.17,4.17,0,0,1,0-3.92Zm2,.12a1.91,1.91,0,0,0-.52,1.11h3.56a1.8,1.8,0,0,0-.48-1.11,1.66,1.66,0,0,0-1.3-.49A1.61,1.61,0,0,0,203.22,213.81Z" fill="#fa1111"/><path d="M213.84,218.48a2.63,2.63,0,0,1-1,.69,3.41,3.41,0,0,1-1.32.25,2.79,2.79,0,0,1-1.19-.27,2.34,2.34,0,0,1-.95-.82A2.24,2.24,0,0,1,209,217a2.21,2.21,0,0,1,.37-1.32,2.17,2.17,0,0,1,.94-.76,3.06,3.06,0,0,1,1.2-.24,3.77,3.77,0,0,1,1.34.22,2.23,2.23,0,0,1,1,.66v-1a1.07,1.07,0,0,0-.43-.89,1.88,1.88,0,0,0-1.16-.33,3.06,3.06,0,0,0-2.12.86l-.71-1.28a4.19,4.19,0,0,1,1.46-.85,5.1,5.1,0,0,1,1.7-.29,3.78,3.78,0,0,1,2.28.65,2.43,2.43,0,0,1,.89,2.1v4.68h-1.91Zm0-1.89a1.41,1.41,0,0,0-.64-.46,2.17,2.17,0,0,0-.89-.17,1.63,1.63,0,0,0-1,.29,1,1,0,0,0-.38.81,1,1,0,0,0,.38.79,1.62,1.62,0,0,0,1,.28,2.35,2.35,0,0,0,.89-.16,1.43,1.43,0,0,0,.64-.47Z" fill="#fa1111"/><path d="M217.56,212h1.9v1a3.26,3.26,0,0,1,1-.83,2.76,2.76,0,0,1,1.29-.34v1.86a2.37,2.37,0,0,0-.52-.06,2.52,2.52,0,0,0-1,.24,1.8,1.8,0,0,0-.77.59v4.8h-1.9Z" fill="#fa1111"/><path d="M227.71,214.85a1.36,1.36,0,0,0-.35-1,1.42,1.42,0,0,0-1-.31,1.8,1.8,0,0,0-1,.25,2.16,2.16,0,0,0-.7.6v4.88h-1.9V212h1.9v1a3.24,3.24,0,0,1,1.05-.8,3.43,3.43,0,0,1,1.49-.33,2.11,2.11,0,0,1,2.35,2.31v5.12h-1.9Z" fill="#fa1111"/><path d="M244.09,212l-2.82,7.2h-.93l-2.82-7.2v7.2h-2.13v-10h3l2.43,6.24,2.43-6.24h3v10h-2.14Z" fill="#fa1111"/><path d="M249.55,218.91a3.48,3.48,0,0,1-1.34-1.38,4.22,4.22,0,0,1,0-3.83,3.48,3.48,0,0,1,1.34-1.38,3.82,3.82,0,0,1,2-.52,3.87,3.87,0,0,1,2,.52A3.48,3.48,0,0,1,255,213.7a4.22,4.22,0,0,1,0,3.83,3.48,3.48,0,0,1-1.34,1.38,4,4,0,0,1-2,.51A3.91,3.91,0,0,1,249.55,218.91Zm3.38-1.79a2.27,2.27,0,0,0,.5-1.51,2.25,2.25,0,0,0-.5-1.5,1.66,1.66,0,0,0-1.36-.61,1.64,1.64,0,0,0-1.35.61,2.29,2.29,0,0,0-.49,1.5,2.32,2.32,0,0,0,.49,1.51,1.64,1.64,0,0,0,1.35.61A1.66,1.66,0,0,0,252.93,217.12Z" fill="#fa1111"/><path d="M256.78,212h1.91v1a3.26,3.26,0,0,1,1-.83,2.76,2.76,0,0,1,1.29-.34v1.86a2.46,2.46,0,0,0-.53-.06,2.52,2.52,0,0,0-1,.24,1.77,1.77,0,0,0-.76.59v4.8h-1.91Z" fill="#fa1111"/><path d="M262.09,213.69a3.57,3.57,0,0,1,1.33-1.37,3.64,3.64,0,0,1,1.94-.52,3.52,3.52,0,0,1,1.89.51,3.37,3.37,0,0,1,1.28,1.41,4.57,4.57,0,0,1,.46,2.07v.42H263.6a1.85,1.85,0,0,0,.65,1.21,2.08,2.08,0,0,0,1.44.49,3,3,0,0,0,1.05-.2,2.45,2.45,0,0,0,.88-.52l.84,1.23a3.52,3.52,0,0,1-1.32.74,5.11,5.11,0,0,1-1.66.26,4.08,4.08,0,0,1-2-.47,3.39,3.39,0,0,1-1.39-1.34,3.83,3.83,0,0,1-.5-2A3.91,3.91,0,0,1,262.09,213.69Zm2,.12a1.93,1.93,0,0,0-.53,1.11h3.57a1.81,1.81,0,0,0-.49-1.11,1.9,1.9,0,0,0-2.55,0Z" fill="#fa1111"/></g></g></g></svg>