<svg xmlns="http://www.w3.org/2000/svg" viewBox="0 0 300 250"><title>legal</title><g id="Layer_2" data-name="Layer 2"><g id="rect"><rect width="300" height="250" fill="none"/></g><g id="Made_from_100_Recycled_Plastic._Bottle_only._Excludes_cap_and" data-name="Made from 100% Recycled Plastic. Bottle only. Excludes cap and"><path d="M14,238.26l-2.13,5.21h-.32l-2.12-5.21v5.21H8.68v-6.26H9.79L11.73,242l1.95-4.77H14.8v6.26H14Z" fill="#fff"/><path d="M19.17,243a1.9,1.9,0,0,1-1.5.64,1.74,1.74,0,0,1-.77-.18,1.52,1.52,0,0,1-.59-.51,1.58,1.58,0,0,1,0-1.64,1.5,1.5,0,0,1,.59-.5,1.73,1.73,0,0,1,.77-.17,1.86,1.86,0,0,1,1.5.62v-.82a.85.85,0,0,0-.32-.7,1.29,1.29,0,0,0-.83-.26,1.87,1.87,0,0,0-.75.16,2.07,2.07,0,0,0-.63.47l-.33-.48a2.22,2.22,0,0,1,.81-.57,2.66,2.66,0,0,1,1-.18,2,2,0,0,1,1.26.37,1.34,1.34,0,0,1,.49,1.15v3.12h-.7Zm0-1.29a1.31,1.31,0,0,0-.53-.42,1.72,1.72,0,0,0-.72-.15,1.2,1.2,0,0,0-.8.28.92.92,0,0,0-.31.72.89.89,0,0,0,.31.71,1.15,1.15,0,0,0,.8.28,1.89,1.89,0,0,0,.72-.14,1.31,1.31,0,0,0,.53-.42Z" fill="#fff"/><path d="M24.6,242.79a2,2,0,0,1-.66.58,1.86,1.86,0,0,1-.86.22,1.86,1.86,0,0,1-1.76-1.12,3.22,3.22,0,0,1,0-2.51,2,2,0,0,1,.72-.84,1.84,1.84,0,0,1,1-.29,1.74,1.74,0,0,1,.84.21,1.9,1.9,0,0,1,.68.58v-2.41h.71v6.26H24.6Zm0-2.6a1.52,1.52,0,0,0-.57-.52,1.55,1.55,0,0,0-.79-.22,1.27,1.27,0,0,0-1,.5,2.18,2.18,0,0,0,0,2.52,1.26,1.26,0,0,0,1,.49,1.58,1.58,0,0,0,.79-.21,1.48,1.48,0,0,0,.57-.5Z" fill="#fff"/><path d="M26.75,240a2.36,2.36,0,0,1,.79-.87,2.13,2.13,0,0,1,1.15-.31,2.06,2.06,0,0,1,1.15.31,2.17,2.17,0,0,1,.76.88,2.88,2.88,0,0,1,.26,1.23v.18H27.2a1.72,1.72,0,0,0,.48,1.12,1.52,1.52,0,0,0,1.15.46,2,2,0,0,0,.76-.15,1.65,1.65,0,0,0,.63-.43l.34.46a2.4,2.4,0,0,1-1.8.7,2.36,2.36,0,0,1-1.19-.3,2.16,2.16,0,0,1-.82-.85,2.5,2.5,0,0,1-.29-1.24A2.41,2.41,0,0,1,26.75,240Zm1.14-.38a1.44,1.44,0,0,0-.5.57,1.68,1.68,0,0,0-.19.72h3a1.82,1.82,0,0,0-.18-.72,1.34,1.34,0,0,0-.49-.57,1.44,1.44,0,0,0-.82-.22A1.36,1.36,0,0,0,27.89,239.63Z" fill="#fff"/><path d="M34.42,239.56h-.75v-.62h.75v-.35a1.54,1.54,0,0,1,.36-1.09,1.43,1.43,0,0,1,1.64-.23l-.18.53a.77.77,0,0,0-.4-.1.65.65,0,0,0-.53.23,1,1,0,0,0-.18.66v.35h.92v.62h-.92v3.91h-.71Z" fill="#fff"/><path d="M36.91,238.94h.71v.73a2.47,2.47,0,0,1,.68-.61,1.53,1.53,0,0,1,.83-.23v.72a1.27,1.27,0,0,0-.28,0,1.29,1.29,0,0,0-.7.23,1.41,1.41,0,0,0-.53.49v3.23h-.71Z" fill="#fff"/><path d="M40.73,243.27a2.06,2.06,0,0,1-.78-.87,2.71,2.71,0,0,1,0-2.4,2.09,2.09,0,0,1,.78-.86,2.19,2.19,0,0,1,1.18-.31,2.12,2.12,0,0,1,2,1.17,2.8,2.8,0,0,1,0,2.4,2.15,2.15,0,0,1-.79.87,2.17,2.17,0,0,1-1.18.32A2.19,2.19,0,0,1,40.73,243.27Zm2-.55a1.47,1.47,0,0,0,.51-.64,2.16,2.16,0,0,0,.18-.88,2.12,2.12,0,0,0-.18-.87,1.53,1.53,0,0,0-.51-.64,1.49,1.49,0,0,0-1.62,0,1.55,1.55,0,0,0-.52.64,2.12,2.12,0,0,0-.18.87,2.16,2.16,0,0,0,.18.88,1.49,1.49,0,0,0,.52.64,1.49,1.49,0,0,0,1.62,0Z" fill="#fff"/><path d="M50.77,240.39a1.05,1.05,0,0,0-.21-.69.76.76,0,0,0-.62-.25,1.28,1.28,0,0,0-.68.21,1.64,1.64,0,0,0-.52.49v3.32H48v-3.08c0-.62-.27-.94-.83-.94a1.22,1.22,0,0,0-.66.21,1.7,1.7,0,0,0-.53.5v3.31h-.7v-4.53H46v.65a1.82,1.82,0,0,1,.59-.51,1.65,1.65,0,0,1,.87-.25,1.3,1.3,0,0,1,.81.23,1.17,1.17,0,0,1,.41.61,1.8,1.8,0,0,1,.63-.59,1.69,1.69,0,0,1,.89-.25,1.22,1.22,0,0,1,.94.34,1.42,1.42,0,0,1,.32,1v3.28h-.7Z" fill="#fff"/><path d="M56.08,238.24l-1,1.06-.46-.47,1.56-1.62h.69v6.26h-.78Z" fill="#fff"/><path d="M58.43,238.79a2.73,2.73,0,0,1,.78-1.21,2.17,2.17,0,0,1,2.7,0,2.75,2.75,0,0,1,.79,1.21,5,5,0,0,1,0,3.11,2.75,2.75,0,0,1-.79,1.21,2,2,0,0,1-1.35.48,1.93,1.93,0,0,1-1.34-.48,2.67,2.67,0,0,1-.79-1.21,4.78,4.78,0,0,1,0-3.11Zm3.34-.25a1.36,1.36,0,0,0-2.42,0,3.93,3.93,0,0,0-.38,1.8,4,4,0,0,0,.38,1.82,1.37,1.37,0,0,0,2.42,0,3.89,3.89,0,0,0,.39-1.82A3.8,3.8,0,0,0,61.77,238.54Z" fill="#fff"/><path d="M64.25,238.79a2.75,2.75,0,0,1,.79-1.21,2,2,0,0,1,1.35-.47,2,2,0,0,1,1.34.47,2.77,2.77,0,0,1,.8,1.21,5,5,0,0,1,0,3.11,2.77,2.77,0,0,1-.8,1.21,1.91,1.91,0,0,1-1.34.48,2,2,0,0,1-1.35-.48,2.75,2.75,0,0,1-.79-1.21,5,5,0,0,1,0-3.11Zm3.35-.25a1.36,1.36,0,0,0-2.42,0,3.8,3.8,0,0,0-.38,1.8,3.89,3.89,0,0,0,.38,1.82,1.37,1.37,0,0,0,2.42,0,4,4,0,0,0,.38-1.82A3.93,3.93,0,0,0,67.6,238.54Z" fill="#fff"/><path d="M69.78,237.88a1.3,1.3,0,0,1,.53-.56,1.41,1.41,0,0,1,.77-.21,1.48,1.48,0,0,1,.79.21,1.39,1.39,0,0,1,.54.56,1.59,1.59,0,0,1,.19.79,1.62,1.62,0,0,1-.19.79,1.5,1.5,0,0,1-.54.55,1.72,1.72,0,0,1-1.57,0,1.47,1.47,0,0,1-.53-.55,1.74,1.74,0,0,1-.19-.79A1.6,1.6,0,0,1,69.78,237.88Zm2,0a.89.89,0,0,0-.69-.3.85.85,0,0,0-.67.3,1.15,1.15,0,0,0-.26.78,1.12,1.12,0,0,0,.26.76.85.85,0,0,0,.67.3.89.89,0,0,0,.69-.3,1.12,1.12,0,0,0,.27-.76A1.16,1.16,0,0,0,71.77,237.89Zm2.72-.68H75l-4,6.26h-.51Zm-1.45,4a1.5,1.5,0,0,1,.53-.56,1.42,1.42,0,0,1,.78-.21,1.47,1.47,0,0,1,.78.21,1.5,1.5,0,0,1,.53.56,1.62,1.62,0,0,1,.19.79,1.59,1.59,0,0,1-.19.79,1.34,1.34,0,0,1-.53.55,1.64,1.64,0,0,1-1.57,0,1.34,1.34,0,0,1-.53-.55,1.7,1.7,0,0,1-.18-.79A1.62,1.62,0,0,1,73,241.26Zm2,0a.83.83,0,0,0-.68-.31.85.85,0,0,0-.69.31,1.16,1.16,0,0,0-.26.77,1.09,1.09,0,0,0,.27.76.83.83,0,0,0,.68.31.86.86,0,0,0,.68-.31,1.09,1.09,0,0,0,.27-.76A1.11,1.11,0,0,0,75,241.28Z" fill="#fff"/><path d="M81.13,241H79.89v2.49h-.78v-6.26h2.51a2.25,2.25,0,0,1,1,.23,1.75,1.75,0,0,1,.69.66,1.93,1.93,0,0,1,.25,1,1.89,1.89,0,0,1-.22.94,1.67,1.67,0,0,1-.59.62,2.08,2.08,0,0,1-.81.26l1.69,2.55h-.92Zm1.3-2.74a1.25,1.25,0,0,0-.9-.33H79.89v2.39h1.64a1.25,1.25,0,0,0,.9-.34,1.15,1.15,0,0,0,.34-.86A1.14,1.14,0,0,0,82.43,238.24Z" fill="#fff"/><path d="M84.72,240a2.39,2.39,0,0,1,.8-.87,2.13,2.13,0,0,1,1.15-.31,2.08,2.08,0,0,1,1.15.31,2.17,2.17,0,0,1,.76.88,2.88,2.88,0,0,1,.26,1.23v.18H85.17a1.78,1.78,0,0,0,.49,1.12,1.52,1.52,0,0,0,1.15.46,2,2,0,0,0,.76-.15,1.65,1.65,0,0,0,.63-.43l.34.46a2.4,2.4,0,0,1-1.8.7,2.36,2.36,0,0,1-1.19-.3,2.16,2.16,0,0,1-.82-.85,2.65,2.65,0,0,1,0-2.43Zm1.15-.38a1.44,1.44,0,0,0-.5.57,1.85,1.85,0,0,0-.2.72h3a1.82,1.82,0,0,0-.18-.72,1.41,1.41,0,0,0-.49-.57,1.46,1.46,0,0,0-.82-.22A1.36,1.36,0,0,0,85.87,239.63Z" fill="#fff"/><path d="M90,240a2.21,2.21,0,0,1,.8-.86,2.26,2.26,0,0,1,1.17-.3,2.06,2.06,0,0,1,1,.2,2.09,2.09,0,0,1,.68.58l-.47.43a1.35,1.35,0,0,0-1.15-.59,1.47,1.47,0,0,0-1.14.49,2.12,2.12,0,0,0,0,2.53A1.47,1.47,0,0,0,92,243a1.37,1.37,0,0,0,1.15-.59l.47.43a2.09,2.09,0,0,1-.68.58,2.06,2.06,0,0,1-1,.21,2.27,2.27,0,0,1-1.17-.31,2.14,2.14,0,0,1-.8-.86A2.69,2.69,0,0,1,90,240Z" fill="#fff"/><path d="M95.08,244.67a.73.73,0,0,0,.41-.1.87.87,0,0,0,.27-.37l.3-.69-1.89-4.57h.75l1.51,3.71,1.5-3.71h.77l-2.27,5.44a1.33,1.33,0,0,1-1.33.92,2,2,0,0,1-.51-.06l.11-.64A.92.92,0,0,0,95.08,244.67Z" fill="#fff"/><path d="M99.38,240a2.12,2.12,0,0,1,2-1.16,2,2,0,0,1,1,.2,2.12,2.12,0,0,1,.69.58l-.47.43a1.37,1.37,0,0,0-1.15-.59,1.44,1.44,0,0,0-1.14.49,2.08,2.08,0,0,0,0,2.53,1.44,1.44,0,0,0,1.14.49,1.39,1.39,0,0,0,1.15-.59l.47.43a2.12,2.12,0,0,1-.69.58,2,2,0,0,1-1,.21,2.28,2.28,0,0,1-1.18-.31,2.21,2.21,0,0,1-.8-.86,2.78,2.78,0,0,1,0-2.43Z" fill="#fff"/><path d="M104,237.21h.71v6.26H104Z" fill="#fff"/><path d="M106.18,240a2.36,2.36,0,0,1,.79-.87,2.13,2.13,0,0,1,1.15-.31,2.06,2.06,0,0,1,1.15.31,2.17,2.17,0,0,1,.76.88,2.88,2.88,0,0,1,.26,1.23v.18h-3.66a1.72,1.72,0,0,0,.48,1.12,1.52,1.52,0,0,0,1.15.46,2,2,0,0,0,.76-.15,1.65,1.65,0,0,0,.63-.43l.34.46a2.4,2.4,0,0,1-1.8.7,2.36,2.36,0,0,1-1.19-.3,2.16,2.16,0,0,1-.82-.85,2.5,2.5,0,0,1-.29-1.24A2.41,2.41,0,0,1,106.18,240Zm1.14-.38a1.44,1.44,0,0,0-.5.57,1.68,1.68,0,0,0-.19.72h3a1.82,1.82,0,0,0-.18-.72,1.41,1.41,0,0,0-.49-.57,1.44,1.44,0,0,0-.82-.22A1.36,1.36,0,0,0,107.32,239.63Z" fill="#fff"/><path d="M114.72,242.79a2.09,2.09,0,0,1-.67.58,1.83,1.83,0,0,1-.86.22,1.91,1.91,0,0,1-1-.29,1.89,1.89,0,0,1-.72-.83,3.28,3.28,0,0,1,0-2.51,2,2,0,0,1,.71-.84,1.89,1.89,0,0,1,1-.29,1.81,1.81,0,0,1,.85.21,2,2,0,0,1,.68.58v-2.41h.7v6.26h-.7Zm0-2.6a1.76,1.76,0,0,0-1.36-.74,1.29,1.29,0,0,0-1.06.5,2.23,2.23,0,0,0,0,2.52,1.28,1.28,0,0,0,1.06.49,1.61,1.61,0,0,0,.79-.21,1.48,1.48,0,0,0,.57-.5Z" fill="#fff"/><path d="M119.09,237.21h2.51a2,2,0,0,1,1.05.26,1.59,1.59,0,0,1,.68.68,2,2,0,0,1,.23.95,2,2,0,0,1-.23.94,1.8,1.8,0,0,1-.68.69,2.09,2.09,0,0,1-1.05.25h-1.73v2.49h-.78Zm3.32,1a1.25,1.25,0,0,0-.9-.33h-1.64v2.38h1.64a1.25,1.25,0,0,0,.9-.33,1.15,1.15,0,0,0,.34-.86A1.14,1.14,0,0,0,122.41,238.24Z" fill="#fff"/><path d="M124.56,237.21h.7v6.26h-.7Z" fill="#fff"/><path d="M129.54,243a1.9,1.9,0,0,1-1.5.64,1.71,1.71,0,0,1-.77-.18,1.52,1.52,0,0,1-.59-.51,1.58,1.58,0,0,1,0-1.64,1.5,1.5,0,0,1,.59-.5,1.7,1.7,0,0,1,.77-.17,1.86,1.86,0,0,1,1.5.62v-.82a.85.85,0,0,0-.32-.7,1.29,1.29,0,0,0-.83-.26,1.87,1.87,0,0,0-.75.16,2.07,2.07,0,0,0-.63.47l-.33-.48a2.22,2.22,0,0,1,.81-.57,2.66,2.66,0,0,1,1-.18,2,2,0,0,1,1.26.37,1.34,1.34,0,0,1,.49,1.15v3.12h-.7Zm0-1.29a1.31,1.31,0,0,0-.53-.42,1.72,1.72,0,0,0-.72-.15,1.2,1.2,0,0,0-.8.28.92.92,0,0,0-.31.72.89.89,0,0,0,.31.71,1.15,1.15,0,0,0,.8.28,1.89,1.89,0,0,0,.72-.14,1.31,1.31,0,0,0,.53-.42Z" fill="#fff"/><path d="M131.65,242.37a1.88,1.88,0,0,0,.64.46,2.1,2.1,0,0,0,.85.19,1.3,1.3,0,0,0,.79-.21.67.67,0,0,0,.28-.55.55.55,0,0,0-.29-.5,3.54,3.54,0,0,0-.87-.31,6.75,6.75,0,0,1-.85-.24,1.46,1.46,0,0,1-.56-.39,1,1,0,0,1-.24-.69,1.07,1.07,0,0,1,.21-.65,1.33,1.33,0,0,1,.58-.48,2.07,2.07,0,0,1,.9-.17,2.27,2.27,0,0,1,1.68.65l-.33.49a1.45,1.45,0,0,0-.57-.41,1.85,1.85,0,0,0-.78-.16,1.32,1.32,0,0,0-.73.18.6.6,0,0,0-.27.5.48.48,0,0,0,.28.45,3.65,3.65,0,0,0,.83.27,6,6,0,0,1,.86.26,1.43,1.43,0,0,1,.59.41,1.08,1.08,0,0,1,.24.74,1.19,1.19,0,0,1-.47,1,2,2,0,0,1-1.31.39,2.42,2.42,0,0,1-1.83-.71Z" fill="#fff"/><path d="M136.55,243.32a1.14,1.14,0,0,1-.25-.79v-3h-.75v-.62h.75V237.7h.7v1.24h.92v.62H137v2.82a.7.7,0,0,0,.12.42.39.39,0,0,0,.34.16.86.86,0,0,0,.27-.05.55.55,0,0,0,.21-.14l.2.53a1.17,1.17,0,0,1-.84.29A1,1,0,0,1,136.55,243.32Z" fill="#fff"/><path d="M139,238a.49.49,0,0,1-.14-.34.45.45,0,0,1,.14-.33.49.49,0,0,1,.33-.14.49.49,0,0,1,.34.14.45.45,0,0,1,.14.33.48.48,0,0,1-.48.48A.49.49,0,0,1,139,238Zm0,.9h.71v4.53H139Z" fill="#fff"/><path d="M141.1,240a2.21,2.21,0,0,1,.8-.86,2.28,2.28,0,0,1,1.18-.3,2,2,0,0,1,1,.2,2.12,2.12,0,0,1,.69.58l-.47.43a1.37,1.37,0,0,0-1.15-.59,1.44,1.44,0,0,0-1.14.49,2.08,2.08,0,0,0,0,2.53,1.44,1.44,0,0,0,1.14.49,1.39,1.39,0,0,0,1.15-.59l.47.43a2.12,2.12,0,0,1-.69.58,2,2,0,0,1-1,.21,2.28,2.28,0,0,1-1.18-.31,2.14,2.14,0,0,1-.8-.86,2.78,2.78,0,0,1,0-2.43Z" fill="#fff"/><path d="M145.85,242.71a.51.51,0,1,1,.72.72.51.51,0,1,1-.72-.72Z" fill="#fff"/><path d="M150.25,237.21H153a1.81,1.81,0,0,1,1.28.44,1.51,1.51,0,0,1,.48,1.16,1.47,1.47,0,0,1-.32.95,1.36,1.36,0,0,1-.78.48,1.24,1.24,0,0,1,.61.27,1.68,1.68,0,0,1,.44.57,1.54,1.54,0,0,1,.17.7,1.6,1.6,0,0,1-.49,1.22,1.82,1.82,0,0,1-1.32.47h-2.85Zm2.65,2.71a1.08,1.08,0,0,0,.8-.28,1,1,0,0,0,.28-.72,1,1,0,0,0-.29-.73,1.06,1.06,0,0,0-.79-.28H151v2Zm0,2.85a1.22,1.22,0,0,0,.85-.29,1,1,0,0,0,.31-.79,1,1,0,0,0-.31-.77,1.14,1.14,0,0,0-.85-.3H151v2.15Z" fill="#fff"/><path d="M157,243.27a2.06,2.06,0,0,1-.78-.87,2.71,2.71,0,0,1,0-2.4,2.09,2.09,0,0,1,.78-.86,2.19,2.19,0,0,1,1.18-.31,2.12,2.12,0,0,1,2,1.17,2.8,2.8,0,0,1,0,2.4,2.15,2.15,0,0,1-.79.87,2.17,2.17,0,0,1-1.18.32A2.19,2.19,0,0,1,157,243.27Zm2-.55a1.47,1.47,0,0,0,.51-.64,2.16,2.16,0,0,0,.18-.88,2.12,2.12,0,0,0-.18-.87,1.53,1.53,0,0,0-.51-.64,1.36,1.36,0,0,0-.81-.24,1.38,1.38,0,0,0-.81.24,1.55,1.55,0,0,0-.52.64,2.12,2.12,0,0,0-.18.87,2.16,2.16,0,0,0,.18.88,1.49,1.49,0,0,0,.52.64,1.38,1.38,0,0,0,.81.24A1.36,1.36,0,0,0,159,242.72Z" fill="#fff"/><path d="M161.88,243.32a1.14,1.14,0,0,1-.25-.79v-3h-.75v-.62h.75V237.7h.7v1.24h.92v.62h-.92v2.82a.7.7,0,0,0,.12.42.39.39,0,0,0,.34.16.76.76,0,0,0,.27-.05.55.55,0,0,0,.21-.14l.21.53a1.22,1.22,0,0,1-.85.29A1,1,0,0,1,161.88,243.32Z" fill="#fff"/><path d="M164.88,243.32a1.14,1.14,0,0,1-.25-.79v-3h-.75v-.62h.75V237.7h.7v1.24h.92v.62h-.92v2.82a.7.7,0,0,0,.12.42.39.39,0,0,0,.34.16.87.87,0,0,0,.28-.05.6.6,0,0,0,.2-.14l.21.53a1.22,1.22,0,0,1-.85.29A1,1,0,0,1,164.88,243.32Z" fill="#fff"/><path d="M167.33,237.21h.7v6.26h-.7Z" fill="#fff"/><path d="M169.5,240a2.39,2.39,0,0,1,.8-.87,2.12,2.12,0,0,1,1.14-.31,2.1,2.1,0,0,1,1.16.31,2.17,2.17,0,0,1,.76.88,2.88,2.88,0,0,1,.26,1.23v.18H170a1.73,1.73,0,0,0,.49,1.12,1.5,1.5,0,0,0,1.14.46,2,2,0,0,0,.77-.15,1.73,1.73,0,0,0,.63-.43l.34.46a2.4,2.4,0,0,1-1.8.7,2.34,2.34,0,0,1-1.19-.3,2.1,2.1,0,0,1-.82-.85,2.65,2.65,0,0,1,0-2.43Zm1.15-.38a1.55,1.55,0,0,0-.51.57,1.83,1.83,0,0,0-.19.72h3a1.65,1.65,0,0,0-.17-.72,1.37,1.37,0,0,0-.5-.57,1.41,1.41,0,0,0-.82-.22A1.35,1.35,0,0,0,170.65,239.63Z" fill="#fff"/><path d="M177.78,243.27a2.06,2.06,0,0,1-.78-.87,2.71,2.71,0,0,1,0-2.4,2.09,2.09,0,0,1,.78-.86,2.19,2.19,0,0,1,1.18-.31,2.12,2.12,0,0,1,2,1.17,2.8,2.8,0,0,1,0,2.4,2.15,2.15,0,0,1-.79.87,2.17,2.17,0,0,1-1.18.32A2.19,2.19,0,0,1,177.78,243.27Zm2-.55a1.47,1.47,0,0,0,.51-.64,2.16,2.16,0,0,0,.18-.88,2.12,2.12,0,0,0-.18-.87,1.53,1.53,0,0,0-.51-.64,1.36,1.36,0,0,0-.81-.24,1.38,1.38,0,0,0-.81.24,1.55,1.55,0,0,0-.52.64,2.12,2.12,0,0,0-.18.87,2.16,2.16,0,0,0,.18.88,1.49,1.49,0,0,0,.52.64,1.38,1.38,0,0,0,.81.24A1.36,1.36,0,0,0,179.77,242.72Z" fill="#fff"/><path d="M185.41,240.5a1.08,1.08,0,0,0-.26-.81,1.09,1.09,0,0,0-.75-.24,1.57,1.57,0,0,0-.77.21,1.74,1.74,0,0,0-.57.5v3.31h-.7v-4.53h.7v.65a2.49,2.49,0,0,1,.7-.54,2,2,0,0,1,.91-.22,1.29,1.29,0,0,1,1.45,1.46v3.18h-.71Z" fill="#fff"/><path d="M187.53,237.21h.7v6.26h-.7Z" fill="#fff"/><path d="M190,244.67a.7.7,0,0,0,.4-.1.73.73,0,0,0,.27-.37l.3-.69-1.89-4.57h.76l1.51,3.71,1.5-3.71h.77l-2.27,5.44a1.5,1.5,0,0,1-.53.7,1.47,1.47,0,0,1-.8.22,2.12,2.12,0,0,1-.52-.06l.11-.64A1,1,0,0,0,190,244.67Z" fill="#fff"/><path d="M193.86,242.71a.51.51,0,1,1,.72.72.51.51,0,1,1-.72-.72Z" fill="#fff"/><path d="M198.26,237.21h4.1v.7H199v2h3.25v.7H199v2.15h3.32v.7h-4.1Z" fill="#fff"/><path d="M205.3,241.61l-1.36,1.86h-.81l1.74-2.33-1.64-2.2H204l1.26,1.72,1.26-1.72h.81l-1.64,2.2,1.74,2.33h-.81Z" fill="#fff"/><path d="M208.17,240a2.18,2.18,0,0,1,.79-.86,2.3,2.3,0,0,1,1.18-.3,1.93,1.93,0,0,1,1.66.78l-.47.43a1.37,1.37,0,0,0-1.15-.59,1.44,1.44,0,0,0-1.14.49,2.08,2.08,0,0,0,0,2.53,1.44,1.44,0,0,0,1.14.49,1.38,1.38,0,0,0,1.15-.59l.47.43a2,2,0,0,1-1.66.79,2.31,2.31,0,0,1-1.18-.31,2.12,2.12,0,0,1-.79-.86,2.69,2.69,0,0,1,0-2.43Z" fill="#fff"/><path d="M212.78,237.21h.71v6.26h-.71Z" fill="#fff"/><path d="M218,242.83a2.47,2.47,0,0,1-.71.54,2,2,0,0,1-.9.22,1.28,1.28,0,0,1-1.45-1.45v-3.2h.71v3a1,1,0,0,0,.26.79,1.06,1.06,0,0,0,.75.24,1.6,1.6,0,0,0,.76-.2,1.57,1.57,0,0,0,.58-.49v-3.33h.7v4.53H218Z" fill="#fff"/><path d="M223.38,242.79a2,2,0,0,1-.66.58,1.87,1.87,0,0,1-.87.22,1.91,1.91,0,0,1-1-.29,1.94,1.94,0,0,1-.71-.83,2.78,2.78,0,0,1-.26-1.26,2.91,2.91,0,0,1,.25-1.25,2,2,0,0,1,.71-.84,1.89,1.89,0,0,1,1-.29,1.78,1.78,0,0,1,.85.21,1.9,1.9,0,0,1,.68.58v-2.41h.71v6.26h-.71Zm0-2.6a1.52,1.52,0,0,0-.57-.52,1.55,1.55,0,0,0-.79-.22,1.3,1.3,0,0,0-1.06.5,2.23,2.23,0,0,0,0,2.52A1.3,1.3,0,0,0,222,243a1.58,1.58,0,0,0,.79-.21,1.48,1.48,0,0,0,.57-.5Z" fill="#fff"/><path d="M225.53,240a2.28,2.28,0,0,1,.79-.87,2.13,2.13,0,0,1,1.15-.31,2.06,2.06,0,0,1,1.15.31,2.17,2.17,0,0,1,.76.88,2.88,2.88,0,0,1,.26,1.23v.18H226a1.72,1.72,0,0,0,.48,1.12,1.52,1.52,0,0,0,1.15.46,2,2,0,0,0,.76-.15,1.65,1.65,0,0,0,.63-.43l.34.46a2.4,2.4,0,0,1-1.8.7,2.36,2.36,0,0,1-1.19-.3,2.16,2.16,0,0,1-.82-.85,2.5,2.5,0,0,1-.3-1.24A2.42,2.42,0,0,1,225.53,240Zm1.14-.38a1.44,1.44,0,0,0-.5.57,1.68,1.68,0,0,0-.19.72h3a1.82,1.82,0,0,0-.18-.72,1.41,1.41,0,0,0-.49-.57,1.46,1.46,0,0,0-.82-.22A1.36,1.36,0,0,0,226.67,239.63Z" fill="#fff"/><path d="M230.73,242.37a2,2,0,0,0,.64.46,2.14,2.14,0,0,0,.85.19,1.3,1.3,0,0,0,.79-.21.64.64,0,0,0,.28-.55.55.55,0,0,0-.29-.5,3.25,3.25,0,0,0-.87-.31,7.28,7.28,0,0,1-.85-.24,1.46,1.46,0,0,1-.56-.39,1,1,0,0,1-.23-.69,1.07,1.07,0,0,1,.2-.65,1.39,1.39,0,0,1,.58-.48,2.11,2.11,0,0,1,.91-.17,2.23,2.23,0,0,1,1.67.65l-.32.49a1.56,1.56,0,0,0-.58-.41,1.77,1.77,0,0,0-.77-.16,1.33,1.33,0,0,0-.74.18.6.6,0,0,0-.27.5.48.48,0,0,0,.28.45,3.65,3.65,0,0,0,.83.27,6.21,6.21,0,0,1,.87.26,1.47,1.47,0,0,1,.58.41,1.08,1.08,0,0,1,.25.74,1.21,1.21,0,0,1-.47,1,2,2,0,0,1-1.32.39,2.41,2.41,0,0,1-1.82-.71Z" fill="#fff"/><path d="M237.37,240a2.21,2.21,0,0,1,.8-.86,2.28,2.28,0,0,1,1.18-.3,2,2,0,0,1,1,.2,2.23,2.23,0,0,1,.69.58l-.47.43a1.37,1.37,0,0,0-1.16-.59,1.44,1.44,0,0,0-1.13.49,2.08,2.08,0,0,0,0,2.53,1.44,1.44,0,0,0,1.13.49,1.4,1.4,0,0,0,1.16-.59l.47.43a2.23,2.23,0,0,1-.69.58,2,2,0,0,1-1,.21,2.28,2.28,0,0,1-1.18-.31,2.14,2.14,0,0,1-.8-.86,2.78,2.78,0,0,1,0-2.43Z" fill="#fff"/><path d="M244.89,243a1.9,1.9,0,0,1-1.5.64,1.71,1.71,0,0,1-.77-.18,1.52,1.52,0,0,1-.59-.51,1.58,1.58,0,0,1,0-1.64,1.5,1.5,0,0,1,.59-.5,1.7,1.7,0,0,1,.77-.17,1.86,1.86,0,0,1,1.5.62v-.82a.85.85,0,0,0-.32-.7,1.29,1.29,0,0,0-.83-.26,1.87,1.87,0,0,0-.75.16,2.07,2.07,0,0,0-.63.47l-.33-.48a2.22,2.22,0,0,1,.81-.57,2.66,2.66,0,0,1,1-.18,2,2,0,0,1,1.26.37,1.34,1.34,0,0,1,.49,1.15v3.12h-.7Zm0-1.29a1.31,1.31,0,0,0-.53-.42,1.72,1.72,0,0,0-.72-.15,1.2,1.2,0,0,0-.8.28.92.92,0,0,0-.31.72.89.89,0,0,0,.31.71,1.15,1.15,0,0,0,.8.28,1.89,1.89,0,0,0,.72-.14,1.31,1.31,0,0,0,.53-.42Z" fill="#fff"/><path d="M247,245.19v-6.25h.71v.67a2,2,0,0,1,.65-.57,1.87,1.87,0,0,1,.88-.21,2,2,0,0,1,1.05.28,1.94,1.94,0,0,1,.71.83,2.92,2.92,0,0,1,.25,1.26,2.89,2.89,0,0,1-.25,1.26,1.85,1.85,0,0,1-1.76,1.13,1.86,1.86,0,0,1-1.53-.8v2.4Zm3.12-5.25a1.32,1.32,0,0,0-1.06-.49,1.49,1.49,0,0,0-.78.22,1.43,1.43,0,0,0-.57.51v2a1.45,1.45,0,0,0,.57.52,1.58,1.58,0,0,0,.78.21,1.32,1.32,0,0,0,1.06-.49,2.25,2.25,0,0,0,0-2.53Z" fill="#fff"/><path d="M257.46,243a1.9,1.9,0,0,1-1.5.64,1.71,1.71,0,0,1-.77-.18,1.52,1.52,0,0,1-.59-.51,1.58,1.58,0,0,1,0-1.64,1.5,1.5,0,0,1,.59-.5,1.7,1.7,0,0,1,.77-.17,1.86,1.86,0,0,1,1.5.62v-.82a.85.85,0,0,0-.32-.7,1.29,1.29,0,0,0-.83-.26,1.87,1.87,0,0,0-.75.16,2.07,2.07,0,0,0-.63.47l-.33-.48a2.22,2.22,0,0,1,.81-.57,2.66,2.66,0,0,1,1-.18,2,2,0,0,1,1.26.37,1.34,1.34,0,0,1,.49,1.15v3.12h-.7Zm0-1.29a1.31,1.31,0,0,0-.53-.42,1.72,1.72,0,0,0-.72-.15,1.2,1.2,0,0,0-.8.28.92.92,0,0,0-.31.72.89.89,0,0,0,.31.71,1.15,1.15,0,0,0,.8.28,1.89,1.89,0,0,0,.72-.14,1.31,1.31,0,0,0,.53-.42Z" fill="#fff"/><path d="M262.64,240.5a1.08,1.08,0,0,0-.26-.81,1.09,1.09,0,0,0-.75-.24,1.57,1.57,0,0,0-.77.21,1.65,1.65,0,0,0-.57.5v3.31h-.71v-4.53h.71v.65a2.49,2.49,0,0,1,.7-.54,2,2,0,0,1,.91-.22,1.28,1.28,0,0,1,1.44,1.46v3.18h-.7Z" fill="#fff"/><path d="M268.05,242.79a2.09,2.09,0,0,1-.67.58,1.83,1.83,0,0,1-.86.22,2,2,0,0,1-1-.29,1.94,1.94,0,0,1-.71-.83,3.16,3.16,0,0,1,0-2.51,2,2,0,0,1,.71-.84,1.89,1.89,0,0,1,1-.29,1.81,1.81,0,0,1,.85.21,2.09,2.09,0,0,1,.68.58v-2.41h.7v6.26h-.7Zm0-2.6a1.55,1.55,0,0,0-.58-.52,1.49,1.49,0,0,0-.78-.22,1.29,1.29,0,0,0-1.06.5,2.23,2.23,0,0,0,0,2.52,1.28,1.28,0,0,0,1.06.49,1.61,1.61,0,0,0,.79-.21,1.48,1.48,0,0,0,.57-.5Z" fill="#fff"/><path d="M272.39,237.21h.7v6.26h-.7Z" fill="#fff"/><path d="M277.37,243a1.9,1.9,0,0,1-1.5.64,1.67,1.67,0,0,1-.76-.18,1.45,1.45,0,0,1-.59-.51,1.58,1.58,0,0,1,0-1.64,1.43,1.43,0,0,1,.59-.5,1.66,1.66,0,0,1,.76-.17,1.86,1.86,0,0,1,1.5.62v-.82a.85.85,0,0,0-.32-.7,1.28,1.28,0,0,0-.82-.26,1.8,1.8,0,0,0-.75.16,2,2,0,0,0-.64.47l-.33-.48a2.31,2.31,0,0,1,.81-.57,2.66,2.66,0,0,1,1-.18,2,2,0,0,1,1.27.37,1.36,1.36,0,0,1,.48,1.15v3.12h-.7Zm0-1.29a1.31,1.31,0,0,0-.53-.42,1.72,1.72,0,0,0-.72-.15,1.2,1.2,0,0,0-.8.28.92.92,0,0,0-.31.72.89.89,0,0,0,.31.71,1.15,1.15,0,0,0,.8.28,1.89,1.89,0,0,0,.72-.14,1.31,1.31,0,0,0,.53-.42Z" fill="#fff"/><path d="M279.5,237.21h.7v2.41a2.05,2.05,0,0,1,.67-.58,1.94,1.94,0,0,1,1.9.08,2,2,0,0,1,.72.84,3.28,3.28,0,0,1,0,2.51,2,2,0,0,1-.72.83,1.91,1.91,0,0,1-1,.29,1.8,1.8,0,0,1-.86-.22,2,2,0,0,1-.67-.58v.68h-.7Zm1.27,5.54a1.58,1.58,0,0,0,.78.21,1.29,1.29,0,0,0,1.07-.49,2.23,2.23,0,0,0,0-2.52,1.3,1.3,0,0,0-1.07-.5,1.49,1.49,0,0,0-.78.22,1.38,1.38,0,0,0-.57.52v2.06A1.34,1.34,0,0,0,280.77,242.75Z" fill="#fff"/><path d="M285,240a2.39,2.39,0,0,1,.8-.87,2.12,2.12,0,0,1,1.14-.31,2,2,0,0,1,1.91,1.19,2.74,2.74,0,0,1,.27,1.23v.18h-3.67a1.73,1.73,0,0,0,.49,1.12A1.48,1.48,0,0,0,287,243a2,2,0,0,0,.77-.15,1.81,1.81,0,0,0,.63-.43l.34.46a2.43,2.43,0,0,1-1.8.7,2.34,2.34,0,0,1-1.19-.3,2.1,2.1,0,0,1-.82-.85,2.65,2.65,0,0,1,0-2.43Zm1.15-.38a1.55,1.55,0,0,0-.51.57,1.83,1.83,0,0,0-.19.72h3a1.65,1.65,0,0,0-.17-.72,1.37,1.37,0,0,0-.5-.57,1.41,1.41,0,0,0-.82-.22A1.33,1.33,0,0,0,286.11,239.63Z" fill="#fff"/><path d="M290.24,237.21h.7v6.26h-.7Z" fill="#fff"/><path d="M292.35,242.71a.49.49,0,0,1,.36-.15.51.51,0,0,1,.37.15.51.51,0,0,1,0,.72.49.49,0,0,1-.37.16.46.46,0,0,1-.36-.16.48.48,0,0,1,0-.72Z" fill="#fff"/></g></g></svg>