<svg xmlns="http://www.w3.org/2000/svg" viewBox="0 0 728 90"><title>legal</title><g id="Layer_2" data-name="Layer 2"><g id="Made_from_100_Recycled_Plastic._Bottle_only._Excludes_cap_and" data-name="Made from 100% Recycled Plastic. Bottle only. Excludes cap and"><path d="M573.5,70l-1.79,4.56h-.59L569.34,70v4.56H568V68.17h1.89l1.54,4,1.54-4h1.9v6.34H573.5Z" fill="#f8d47e"/><path d="M578.85,74a1.76,1.76,0,0,1-.62.43,2.12,2.12,0,0,1-.83.16,1.69,1.69,0,0,1-.76-.17,1.5,1.5,0,0,1-.6-.52,1.42,1.42,0,0,1-.24-.83,1.39,1.39,0,0,1,.24-.84,1.56,1.56,0,0,1,.6-.48,1.94,1.94,0,0,1,.76-.15,2.47,2.47,0,0,1,.84.14,1.45,1.45,0,0,1,.61.42v-.64a.66.66,0,0,0-.28-.56,1.22,1.22,0,0,0-.73-.21,2,2,0,0,0-1.34.55l-.45-.81A2.76,2.76,0,0,1,577,70a3.31,3.31,0,0,1,1.08-.18,2.37,2.37,0,0,1,1.45.41,1.53,1.53,0,0,1,.56,1.33v3h-1.21Zm0-1.2a.94.94,0,0,0-.4-.3,1.56,1.56,0,0,0-.57-.1,1,1,0,0,0-.62.18.63.63,0,0,0-.24.52.58.58,0,0,0,.24.49,1,1,0,0,0,.62.19,1.56,1.56,0,0,0,.57-.11.94.94,0,0,0,.4-.3Z" fill="#f8d47e"/><path d="M584.31,73.92a1.79,1.79,0,0,1-.63.53,1.72,1.72,0,0,1-.78.18,2,2,0,0,1-1-.28,1.89,1.89,0,0,1-.72-.83,3.33,3.33,0,0,1,0-2.58,1.88,1.88,0,0,1,1.77-1.13,1.78,1.78,0,0,1,.78.18,1.74,1.74,0,0,1,.63.52V68.17h1.22v6.34h-1.22Zm0-2.51a1.1,1.1,0,0,0-.44-.38,1.33,1.33,0,0,0-.6-.15,1.07,1.07,0,0,0-.84.37,1.63,1.63,0,0,0,0,1.94,1.07,1.07,0,0,0,.84.37,1.33,1.33,0,0,0,.6-.15,1.16,1.16,0,0,0,.44-.37Z" fill="#f8d47e"/><path d="M586.61,71a2.36,2.36,0,0,1,.85-.87,2.39,2.39,0,0,1,1.22-.32,2.2,2.2,0,0,1,1.2.32,2.12,2.12,0,0,1,.81.89,2.9,2.9,0,0,1,.29,1.31v.27h-3.41a1.18,1.18,0,0,0,.41.77,1.35,1.35,0,0,0,.91.3,2,2,0,0,0,.67-.12,1.54,1.54,0,0,0,.56-.33l.53.78a2.27,2.27,0,0,1-.84.47,3.34,3.34,0,0,1-1,.16,2.66,2.66,0,0,1-1.26-.3,2.29,2.29,0,0,1-.88-.84,2.69,2.69,0,0,1,0-2.49Zm1.27.08a1.2,1.2,0,0,0-.33.7h2.26a1.14,1.14,0,0,0-.31-.7,1.21,1.21,0,0,0-1.62,0Z" fill="#f8d47e"/><path d="M594.17,71h-.76V69.92h.76v-.25a1.58,1.58,0,0,1,.44-1.17,1.48,1.48,0,0,1,1.11-.43,1.87,1.87,0,0,1,.88.19l-.25.85A.75.75,0,0,0,596,69a.54.54,0,0,0-.42.17.75.75,0,0,0-.15.5v.23h.93V71h-.93v3.53h-1.22Z" fill="#f8d47e"/><path d="M596.86,69.92h1.21v.63a2,2,0,0,1,.64-.53,1.75,1.75,0,0,1,.82-.21V71a1.24,1.24,0,0,0-.33,0,1.65,1.65,0,0,0-.65.15,1.11,1.11,0,0,0-.48.37v3h-1.21Z" fill="#f8d47e"/><path d="M601,74.31a2.25,2.25,0,0,1-.85-.88,2.46,2.46,0,0,1-.29-1.21,2.49,2.49,0,0,1,.29-1.21,2.25,2.25,0,0,1,.85-.88,2.51,2.51,0,0,1,1.28-.32,2.57,2.57,0,0,1,1.29.32,2.25,2.25,0,0,1,.85.88,2.6,2.6,0,0,1,.29,1.21,2.57,2.57,0,0,1-.29,1.21,2.25,2.25,0,0,1-.85.88,2.47,2.47,0,0,1-1.29.32A2.41,2.41,0,0,1,601,74.31Zm2.14-1.14a1.57,1.57,0,0,0,0-1.9,1.14,1.14,0,0,0-1.72,0,1.61,1.61,0,0,0,0,1.9,1.14,1.14,0,0,0,1.72,0Z" fill="#f8d47e"/><path d="M611.16,71.61a.78.78,0,0,0-.17-.53.64.64,0,0,0-.52-.2,1,1,0,0,0-.54.16,1.48,1.48,0,0,0-.41.37v3.1h-1.21v-2.9a.78.78,0,0,0-.17-.53.64.64,0,0,0-.52-.2,1,1,0,0,0-.54.16,1.67,1.67,0,0,0-.41.38v3.09h-1.2V69.92h1.2v.6a2,2,0,0,1,.6-.48,1.83,1.83,0,0,1,.9-.23A1.39,1.39,0,0,1,609,70a1.14,1.14,0,0,1,.46.61,1.92,1.92,0,0,1,1.58-.83,1.34,1.34,0,0,1,1,.34,1.39,1.39,0,0,1,.35,1v3.32h-1.21Z" fill="#f8d47e"/><path d="M616.94,69.91,615.89,71l-.77-.81,2-2h1.18v6.34h-1.35Z" fill="#f8d47e"/><path d="M619.52,69.74a2.7,2.7,0,0,1,.88-1.21,2.52,2.52,0,0,1,2.9,0,2.7,2.7,0,0,1,.88,1.21,4.61,4.61,0,0,1,0,3.22,2.7,2.7,0,0,1-.88,1.21,2.52,2.52,0,0,1-2.9,0,2.7,2.7,0,0,1-.88-1.21,4.61,4.61,0,0,1,0-3.22Zm3.28.09a1.09,1.09,0,0,0-1.9,0,3.28,3.28,0,0,0-.3,1.52,3.24,3.24,0,0,0,.3,1.51,1.07,1.07,0,0,0,1.9,0,3.25,3.25,0,0,0,.29-1.51A3.29,3.29,0,0,0,622.8,69.83Z" fill="#f8d47e"/><path d="M625.4,69.74a2.86,2.86,0,0,1,.88-1.21,2.3,2.3,0,0,1,1.46-.46,2.27,2.27,0,0,1,1.45.46,2.78,2.78,0,0,1,.88,1.21,4.61,4.61,0,0,1,0,3.22,2.78,2.78,0,0,1-.88,1.21,2.27,2.27,0,0,1-1.45.46,2.3,2.3,0,0,1-1.46-.46A2.86,2.86,0,0,1,625.4,73a4.77,4.77,0,0,1,0-3.22Zm3.28.09a1,1,0,0,0-.94-.56,1,1,0,0,0-1,.56,3.16,3.16,0,0,0-.31,1.52,3.11,3.11,0,0,0,.31,1.51,1,1,0,0,0,1,.58,1,1,0,0,0,.94-.58,3.24,3.24,0,0,0,.3-1.51A3.28,3.28,0,0,0,628.68,69.83Z" fill="#f8d47e"/><path d="M631,68.85a1.42,1.42,0,0,1,.57-.57,1.64,1.64,0,0,1,.84-.21,1.66,1.66,0,0,1,.84.21,1.42,1.42,0,0,1,.57.57,1.63,1.63,0,0,1,.2.82,1.5,1.5,0,0,1-.2.79,1.42,1.42,0,0,1-.57.57,1.77,1.77,0,0,1-.84.2,1.74,1.74,0,0,1-.84-.2,1.42,1.42,0,0,1-.57-.57,1.6,1.6,0,0,1-.2-.79A1.74,1.74,0,0,1,631,68.85Zm2,.2a.76.76,0,0,0-1.09,0,.92.92,0,0,0-.2.62.84.84,0,0,0,.21.59.68.68,0,0,0,.54.23.7.7,0,0,0,.54-.22.84.84,0,0,0,.21-.6A.88.88,0,0,0,632.94,69.05Zm2.89-.88h.72l-4.06,6.34h-.71Zm-1.35,4.08a1.42,1.42,0,0,1,.56-.58,1.69,1.69,0,0,1,.84-.21,1.64,1.64,0,0,1,.84.21,1.39,1.39,0,0,1,.57.58,1.65,1.65,0,0,1,0,1.61,1.42,1.42,0,0,1-.57.57,1.63,1.63,0,0,1-.84.2,1.68,1.68,0,0,1-.84-.2,1.46,1.46,0,0,1-.56-.57,1.72,1.72,0,0,1,0-1.61Zm1.95.19a.73.73,0,0,0-.55-.23.71.71,0,0,0-.54.23.88.88,0,0,0-.21.62.85.85,0,0,0,.21.61.7.7,0,0,0,.54.22.72.72,0,0,0,.55-.22.85.85,0,0,0,.21-.61A.88.88,0,0,0,636.43,72.44Z" fill="#f8d47e"/><path d="M642.75,72.24h-1v2.27h-1.35V68.17h3a2.39,2.39,0,0,1,1.13.26,1.86,1.86,0,0,1,.74.73,2.16,2.16,0,0,1,.26,1.06,1.89,1.89,0,0,1-.41,1.26,1.82,1.82,0,0,1-1,.62l1.42,2.41H644Zm1.11-2.67a1,1,0,0,0-.68-.24h-1.42v1.75h1.42a1,1,0,0,0,.68-.24.8.8,0,0,0,.27-.63A.84.84,0,0,0,643.86,69.57Z" fill="#f8d47e"/><path d="M646.3,71a2.36,2.36,0,0,1,.85-.87,2.39,2.39,0,0,1,1.22-.32,2.2,2.2,0,0,1,1.2.32,2.12,2.12,0,0,1,.81.89,2.78,2.78,0,0,1,.29,1.31v.27h-3.41a1.22,1.22,0,0,0,.41.77,1.35,1.35,0,0,0,.91.3,2,2,0,0,0,.67-.12,1.54,1.54,0,0,0,.56-.33l.53.78a2.27,2.27,0,0,1-.84.47,3.3,3.3,0,0,1-1,.16,2.6,2.6,0,0,1-1.25-.3,2.16,2.16,0,0,1-.88-.84,2.42,2.42,0,0,1-.32-1.27A2.51,2.51,0,0,1,646.3,71Zm1.28.08a1.22,1.22,0,0,0-.34.7h2.26a1.19,1.19,0,0,0-.3-.7,1.06,1.06,0,0,0-.83-.31A1,1,0,0,0,647.58,71.08Z" fill="#f8d47e"/><path d="M651.47,71a2.22,2.22,0,0,1,.87-.85,2.47,2.47,0,0,1,1.25-.31,2.32,2.32,0,0,1,1.1.23,1.94,1.94,0,0,1,.72.59l-.79.75a1.1,1.1,0,0,0-1-.5,1.16,1.16,0,0,0-.9.37,1.35,1.35,0,0,0-.34,1,1.37,1.37,0,0,0,.34,1,1.16,1.16,0,0,0,.9.37,1.12,1.12,0,0,0,.55-.13,1.21,1.21,0,0,0,.42-.36l.79.73a2,2,0,0,1-.71.6,2.73,2.73,0,0,1-2.36-.08,2.22,2.22,0,0,1-.87-.85,2.68,2.68,0,0,1,0-2.5Z" fill="#f8d47e"/><path d="M656.63,75.3a1,1,0,0,0,.4-.08.47.47,0,0,0,.23-.25l.17-.39-1.86-4.66h1.3l1.19,3.19,1.2-3.19h1.3l-2.16,5.34a1.55,1.55,0,0,1-.66.85,2.28,2.28,0,0,1-1.07.26,1.89,1.89,0,0,1-.32,0l-.28,0,.18-1.09A.92.92,0,0,0,656.63,75.3Z" fill="#f8d47e"/><path d="M660.9,71a2.26,2.26,0,0,1,.86-.85,2.5,2.5,0,0,1,1.26-.31,2.32,2.32,0,0,1,1.1.23,2,2,0,0,1,.71.59l-.79.75a1.09,1.09,0,0,0-1-.5,1.16,1.16,0,0,0-.89.37,1.36,1.36,0,0,0-.35,1,1.37,1.37,0,0,0,.35,1,1.16,1.16,0,0,0,.89.37,1.09,1.09,0,0,0,.55-.13,1.12,1.12,0,0,0,.42-.36l.79.73a2,2,0,0,1-.71.6,2.45,2.45,0,0,1-1.1.23,2.5,2.5,0,0,1-1.26-.31,2.26,2.26,0,0,1-.86-.85,2.6,2.6,0,0,1,0-2.5Z" fill="#f8d47e"/><path d="M665.46,68.17h1.21v6.34h-1.21Z" fill="#f8d47e"/><path d="M667.78,71a2.34,2.34,0,0,1,.84-.87,2.4,2.4,0,0,1,1.23-.32,2.14,2.14,0,0,1,1.19.32,2.21,2.21,0,0,1,.82.89,2.9,2.9,0,0,1,.29,1.31v.27h-3.41a1.16,1.16,0,0,0,.4.77,1.38,1.38,0,0,0,.92.3,2,2,0,0,0,.67-.12,1.5,1.5,0,0,0,.55-.33l.53.78a2.31,2.31,0,0,1-.83.47,3.4,3.4,0,0,1-1.06.16,2.6,2.6,0,0,1-1.25-.3,2.16,2.16,0,0,1-.88-.84,2.52,2.52,0,0,1-.32-1.27A2.41,2.41,0,0,1,667.78,71Zm1.27.08a1.2,1.2,0,0,0-.33.7H671a1.14,1.14,0,0,0-.31-.7,1,1,0,0,0-.82-.31A1,1,0,0,0,669.05,71.08Z" fill="#f8d47e"/><path d="M676.08,73.92a1.79,1.79,0,0,1-.63.53,1.72,1.72,0,0,1-.78.18,2,2,0,0,1-1-.28,1.89,1.89,0,0,1-.72-.83,2.87,2.87,0,0,1-.27-1.3,2.9,2.9,0,0,1,.27-1.28,1.88,1.88,0,0,1,1.77-1.13,1.78,1.78,0,0,1,.78.18,1.74,1.74,0,0,1,.63.52V68.17h1.22v6.34h-1.22Zm0-2.51a1.1,1.1,0,0,0-.44-.38,1.33,1.33,0,0,0-.6-.15,1.07,1.07,0,0,0-.84.37,1.63,1.63,0,0,0,0,1.94,1.07,1.07,0,0,0,.84.37,1.33,1.33,0,0,0,.6-.15,1.16,1.16,0,0,0,.44-.37Z" fill="#f8d47e"/><path d="M680.58,68.17h3a2.33,2.33,0,0,1,1.15.28,1.83,1.83,0,0,1,.73.73,2.13,2.13,0,0,1,.25,1,2.2,2.2,0,0,1-.25,1,1.9,1.9,0,0,1-.73.73,2.33,2.33,0,0,1-1.15.27h-1.61v2.27h-1.35Zm3.45,1.4a1,1,0,0,0-.67-.24h-1.43v1.75h1.43a1,1,0,0,0,.67-.24.83.83,0,0,0,.26-.63A.87.87,0,0,0,684,69.57Z" fill="#f8d47e"/><path d="M686.35,68.17h1.21v6.34h-1.21Z" fill="#f8d47e"/><path d="M691.41,74a1.68,1.68,0,0,1-.62.43,2.08,2.08,0,0,1-.83.16,1.72,1.72,0,0,1-.76-.17,1.5,1.5,0,0,1-.6-.52,1.42,1.42,0,0,1-.24-.83,1.39,1.39,0,0,1,.24-.84,1.56,1.56,0,0,1,.6-.48,1.94,1.94,0,0,1,.76-.15,2.47,2.47,0,0,1,.84.14,1.45,1.45,0,0,1,.61.42v-.64a.68.68,0,0,0-.27-.56,1.26,1.26,0,0,0-.73-.21,1.94,1.94,0,0,0-1.34.55l-.46-.81a2.7,2.7,0,0,1,.93-.54,3.22,3.22,0,0,1,1.08-.18,2.34,2.34,0,0,1,1.44.41,1.53,1.53,0,0,1,.56,1.33v3h-1.21Zm0-1.2a.88.88,0,0,0-.4-.3,1.52,1.52,0,0,0-.57-.1,1,1,0,0,0-.61.18.61.61,0,0,0-.25.52.56.56,0,0,0,.25.49,1,1,0,0,0,.61.19,1.52,1.52,0,0,0,.57-.11.88.88,0,0,0,.4-.3Z" fill="#f8d47e"/><path d="M693.84,73.08a2.21,2.21,0,0,0,.72.43,2.16,2.16,0,0,0,.86.19,1.12,1.12,0,0,0,.58-.12.4.4,0,0,0,.19-.35.34.34,0,0,0-.23-.33,2.59,2.59,0,0,0-.69-.21,7,7,0,0,1-.91-.23,1.46,1.46,0,0,1-.63-.42,1.09,1.09,0,0,1-.26-.79,1.25,1.25,0,0,1,.22-.72,1.51,1.51,0,0,1,.65-.53,2.4,2.4,0,0,1,1-.19,2.93,2.93,0,0,1,1.85.62l-.49.83a1.67,1.67,0,0,0-.58-.38,2,2,0,0,0-.77-.15,1.1,1.1,0,0,0-.53.11.36.36,0,0,0-.2.32.34.34,0,0,0,.22.3,3.46,3.46,0,0,0,.66.19,6,6,0,0,1,.92.24,1.57,1.57,0,0,1,.65.44,1.2,1.2,0,0,1,.27.83,1.3,1.3,0,0,1-.23.75,1.44,1.44,0,0,1-.69.53,2.64,2.64,0,0,1-1.06.19,3.38,3.38,0,0,1-1.15-.19,2.53,2.53,0,0,1-.91-.52Z" fill="#f8d47e"/><path d="M698.75,74.31a1.22,1.22,0,0,1-.34-.93V71h-.76V69.92h.76V68.67h1.22v1.25h.93V71h-.93v2.07a.62.62,0,0,0,.11.37.4.4,0,0,0,.31.14.64.64,0,0,0,.24,0,.38.38,0,0,0,.17-.09l.26.91a1.47,1.47,0,0,1-1,.29A1.3,1.3,0,0,1,698.75,74.31Z" fill="#f8d47e"/><path d="M701.38,69a.71.71,0,0,1,0-1,.67.67,0,0,1,.51-.22A.72.72,0,0,1,702.4,69a.7.7,0,0,1-1,0Zm-.09.89h1.21v4.59h-1.21Z" fill="#f8d47e"/><path d="M703.58,71a2.2,2.2,0,0,1,.86-.85,2.5,2.5,0,0,1,1.26-.31,2.35,2.35,0,0,1,1.1.23,2,2,0,0,1,.71.59l-.79.75a1.09,1.09,0,0,0-1-.5,1.16,1.16,0,0,0-.9.37,1.35,1.35,0,0,0-.34,1,1.37,1.37,0,0,0,.34,1,1.16,1.16,0,0,0,.9.37,1.09,1.09,0,0,0,.55-.13,1.12,1.12,0,0,0,.42-.36l.79.73a2,2,0,0,1-.71.6,2.45,2.45,0,0,1-1.1.23,2.5,2.5,0,0,1-1.26-.31,2.2,2.2,0,0,1-.86-.85,2.6,2.6,0,0,1,0-2.5Z" fill="#f8d47e"/><path d="M708.35,73.32a.77.77,0,0,1,1.31.54.78.78,0,0,1-.23.55.77.77,0,0,1-1.08,0,.74.74,0,0,1-.23-.55A.7.7,0,0,1,708.35,73.32Z" fill="#f8d47e"/><path d="M565.91,77.17h3.34a2.07,2.07,0,0,1,1,.23,1.47,1.47,0,0,1,.62.59,1.57,1.57,0,0,1,.21.8,1.5,1.5,0,0,1-.31,1,1.3,1.3,0,0,1-.78.48,1.33,1.33,0,0,1,.86.52,1.61,1.61,0,0,1,.35,1,1.7,1.7,0,0,1-.48,1.23,1.85,1.85,0,0,1-1.36.48h-3.44Zm3,2.55a.73.73,0,0,0,.54-.2.63.63,0,0,0,.2-.5.7.7,0,0,0-.2-.5.77.77,0,0,0-.54-.2h-1.69v1.4Zm0,2.64a.89.89,0,0,0,.6-.2.75.75,0,0,0,.22-.55.73.73,0,0,0-.22-.53.84.84,0,0,0-.6-.21h-1.74v1.49Z" fill="#f8d47e"/><path d="M572.93,83.31a2.22,2.22,0,0,1-.84-.88,2.47,2.47,0,0,1-.3-1.21,2.49,2.49,0,0,1,.3-1.21,2.22,2.22,0,0,1,.84-.88,2.76,2.76,0,0,1,2.58,0,2.15,2.15,0,0,1,.84.88,2.49,2.49,0,0,1,.3,1.21,2.47,2.47,0,0,1-.3,1.21,2.15,2.15,0,0,1-.84.88,2.76,2.76,0,0,1-2.58,0Zm2.15-1.14a1.61,1.61,0,0,0,0-1.9,1.06,1.06,0,0,0-.86-.39,1,1,0,0,0-.86.39,1.61,1.61,0,0,0,0,1.9,1,1,0,0,0,.86.39A1.06,1.06,0,0,0,575.08,82.17Z" fill="#f8d47e"/><path d="M578,83.31a1.22,1.22,0,0,1-.34-.93V80h-.76V78.92h.76V77.67h1.22v1.25h.93V80h-.93v2.07a.62.62,0,0,0,.11.37.4.4,0,0,0,.31.14.61.61,0,0,0,.24,0,.5.5,0,0,0,.18-.09l.25.91a1.44,1.44,0,0,1-1,.29A1.31,1.31,0,0,1,578,83.31Z" fill="#f8d47e"/><path d="M581.24,83.31a1.26,1.26,0,0,1-.33-.93V80h-.76V78.92h.76V77.67h1.22v1.25h.93V80h-.93v2.07a.62.62,0,0,0,.11.37.39.39,0,0,0,.3.14.66.66,0,0,0,.25,0,.45.45,0,0,0,.17-.09l.26.91a1.47,1.47,0,0,1-1,.29A1.32,1.32,0,0,1,581.24,83.31Z" fill="#f8d47e"/><path d="M583.82,77.17H585v6.34h-1.21Z" fill="#f8d47e"/><path d="M586.14,80a2.34,2.34,0,0,1,.84-.87,2.4,2.4,0,0,1,1.23-.32,2.17,2.17,0,0,1,2,1.21,2.9,2.9,0,0,1,.29,1.31v.27H587.1a1.18,1.18,0,0,0,.41.77,1.33,1.33,0,0,0,.91.3,2,2,0,0,0,.67-.12,1.5,1.5,0,0,0,.55-.33l.54.78a2.36,2.36,0,0,1-.84.47,3.39,3.39,0,0,1-1.05.16,2.63,2.63,0,0,1-1.26-.3,2.22,2.22,0,0,1-.88-.84,2.62,2.62,0,0,1,0-2.49Zm1.27.08a1.2,1.2,0,0,0-.33.7h2.26a1.14,1.14,0,0,0-.31-.7,1,1,0,0,0-.82-.31A1,1,0,0,0,587.41,80.08Z" fill="#f8d47e"/><path d="M594.28,83.31a2.25,2.25,0,0,1-.85-.88,2.57,2.57,0,0,1-.29-1.21,2.6,2.6,0,0,1,.29-1.21,2.25,2.25,0,0,1,.85-.88,2.74,2.74,0,0,1,2.57,0,2.25,2.25,0,0,1,.85.88,2.49,2.49,0,0,1,.29,1.21,2.46,2.46,0,0,1-.29,1.21,2.25,2.25,0,0,1-.85.88,2.74,2.74,0,0,1-2.57,0Zm2.14-1.14a1.57,1.57,0,0,0,0-1.9,1.05,1.05,0,0,0-.86-.39,1,1,0,0,0-.85.39,1.57,1.57,0,0,0,0,1.9,1,1,0,0,0,.85.39A1.05,1.05,0,0,0,596.42,82.17Z" fill="#f8d47e"/><path d="M601.87,80.74a.87.87,0,0,0-.22-.66.93.93,0,0,0-.63-.2,1.12,1.12,0,0,0-.6.16,1.36,1.36,0,0,0-.44.38v3.09h-1.21V78.92H600v.6a1.92,1.92,0,0,1,.66-.5,2.06,2.06,0,0,1,.94-.21,1.33,1.33,0,0,1,1.49,1.46v3.24h-1.2Z" fill="#f8d47e"/><path d="M604.13,77.17h1.21v6.34h-1.21Z" fill="#f8d47e"/><path d="M606.89,84.3a.89.89,0,0,0,.4-.08.53.53,0,0,0,.24-.25l.17-.39-1.86-4.66h1.29l1.2,3.19,1.2-3.19h1.3l-2.16,5.34a1.59,1.59,0,0,1-.66.85,2.33,2.33,0,0,1-1.08.26,1.78,1.78,0,0,1-.31,0l-.29,0,.18-1.09A1,1,0,0,0,606.89,84.3Z" fill="#f8d47e"/><path d="M610.87,82.32a.76.76,0,0,1,.54-.23.78.78,0,0,1,.55.23.73.73,0,0,1,.22.54.75.75,0,0,1-.77.77.75.75,0,0,1-.54-.22.78.78,0,0,1-.23-.55A.74.74,0,0,1,610.87,82.32Z" fill="#f8d47e"/><path d="M615.31,77.17h4.48v1.16h-3.13v1.38h3.07v1.16h-3.07v1.47h3.13v1.17h-4.48Z" fill="#f8d47e"/><path d="M622.61,82l-1.05,1.55h-1.34l1.62-2.36-1.53-2.23h1.35l1,1.42.94-1.42h1.35l-1.54,2.23L625,83.51h-1.34Z" fill="#f8d47e"/><path d="M625.37,80a2.22,2.22,0,0,1,.87-.85,2.44,2.44,0,0,1,1.25-.31,2.32,2.32,0,0,1,1.1.23,1.91,1.91,0,0,1,.71.59l-.78.75a1.11,1.11,0,0,0-1-.5,1.16,1.16,0,0,0-.9.37,1.36,1.36,0,0,0-.35,1,1.37,1.37,0,0,0,.35,1,1.16,1.16,0,0,0,.9.37,1.14,1.14,0,0,0,.55-.13,1.3,1.3,0,0,0,.42-.36l.78.73a2,2,0,0,1-.7.6,2.73,2.73,0,0,1-2.36-.08,2.22,2.22,0,0,1-.87-.85,2.68,2.68,0,0,1,0-2.5Z" fill="#f8d47e"/><path d="M629.93,77.17h1.21v6.34h-1.21Z" fill="#f8d47e"/><path d="M635.3,82.93a2.35,2.35,0,0,1-.68.5,2.06,2.06,0,0,1-.94.2,1.47,1.47,0,0,1-1.11-.38,1.44,1.44,0,0,1-.37-1.06V78.92h1.21v2.79a.81.81,0,0,0,.22.65.84.84,0,0,0,.62.2,1.21,1.21,0,0,0,.6-.15,1.51,1.51,0,0,0,.45-.37V78.92h1.2v4.59h-1.2Z" fill="#f8d47e"/><path d="M640.76,82.92a2,2,0,0,1-.63.53,1.75,1.75,0,0,1-.78.18,1.89,1.89,0,0,1-1.78-1.11,3,3,0,0,1-.26-1.3,3,3,0,0,1,.26-1.28,2.07,2.07,0,0,1,.73-.84,1.92,1.92,0,0,1,1.05-.29,1.71,1.71,0,0,1,.77.18,1.77,1.77,0,0,1,.64.52V77.17H642v6.34h-1.22Zm0-2.51a1.07,1.07,0,0,0-.45-.38,1.26,1.26,0,0,0-.59-.15,1.05,1.05,0,0,0-.84.37,1.63,1.63,0,0,0,0,1.94,1.05,1.05,0,0,0,.84.37,1.26,1.26,0,0,0,.59-.15,1.12,1.12,0,0,0,.45-.37Z" fill="#f8d47e"/><path d="M643.06,80a2.34,2.34,0,0,1,.84-.87,2.4,2.4,0,0,1,1.23-.32,2.2,2.2,0,0,1,1.2.32,2.25,2.25,0,0,1,.81.89,2.9,2.9,0,0,1,.29,1.31v.27H644a1.16,1.16,0,0,0,.4.77,1.38,1.38,0,0,0,.92.3,2,2,0,0,0,.67-.12,1.5,1.5,0,0,0,.55-.33l.53.78a2.31,2.31,0,0,1-.83.47,3.4,3.4,0,0,1-1.06.16,2.6,2.6,0,0,1-1.25-.3,2.22,2.22,0,0,1-.88-.84,2.52,2.52,0,0,1-.32-1.27A2.41,2.41,0,0,1,643.06,80Zm1.27.08a1.2,1.2,0,0,0-.33.7h2.26a1.14,1.14,0,0,0-.31-.7,1,1,0,0,0-.82-.31A1,1,0,0,0,644.33,80.08Z" fill="#f8d47e"/><path d="M648.29,82.08a2.45,2.45,0,0,0,.72.43,2.25,2.25,0,0,0,.87.19,1.1,1.1,0,0,0,.57-.12.41.41,0,0,0,.2-.35.35.35,0,0,0-.23-.33,2.59,2.59,0,0,0-.69-.21,7.67,7.67,0,0,1-.92-.23,1.43,1.43,0,0,1-.62-.42,1.1,1.1,0,0,1-.27-.79,1.26,1.26,0,0,1,.23-.72,1.45,1.45,0,0,1,.65-.53,2.38,2.38,0,0,1,1-.19,3,3,0,0,1,1.86.62l-.49.83a1.67,1.67,0,0,0-.58-.38,2.08,2.08,0,0,0-.78-.15,1.09,1.09,0,0,0-.52.11.36.36,0,0,0-.2.32.33.33,0,0,0,.21.3,4,4,0,0,0,.66.19,6.19,6.19,0,0,1,.93.24,1.54,1.54,0,0,1,.64.44,1.16,1.16,0,0,1,.28.83,1.24,1.24,0,0,1-.24.75,1.42,1.42,0,0,1-.68.53,2.69,2.69,0,0,1-1.07.19,3.33,3.33,0,0,1-1.14-.19,2.44,2.44,0,0,1-.91-.52Z" fill="#f8d47e"/><path d="M654.77,80a2.22,2.22,0,0,1,.87-.85,2.44,2.44,0,0,1,1.25-.31A2.32,2.32,0,0,1,658,79a2,2,0,0,1,.71.59l-.78.75a1.11,1.11,0,0,0-1-.5,1.16,1.16,0,0,0-.9.37,1.36,1.36,0,0,0-.35,1,1.37,1.37,0,0,0,.35,1,1.16,1.16,0,0,0,.9.37,1.14,1.14,0,0,0,.55-.13,1.3,1.3,0,0,0,.42-.36l.78.73a2,2,0,0,1-.7.6,2.73,2.73,0,0,1-2.36-.08,2.22,2.22,0,0,1-.87-.85,2.68,2.68,0,0,1,0-2.5Z" fill="#f8d47e"/><path d="M662.17,83a1.76,1.76,0,0,1-.62.43,2.12,2.12,0,0,1-.83.16,1.72,1.72,0,0,1-.76-.17,1.5,1.5,0,0,1-.6-.52,1.42,1.42,0,0,1-.24-.83,1.39,1.39,0,0,1,.24-.84,1.56,1.56,0,0,1,.6-.48,1.94,1.94,0,0,1,.76-.15,2.47,2.47,0,0,1,.84.14,1.45,1.45,0,0,1,.61.42v-.64a.68.68,0,0,0-.27-.56,1.27,1.27,0,0,0-.74-.21,2,2,0,0,0-1.34.55l-.45-.81a2.76,2.76,0,0,1,.92-.54,3.31,3.31,0,0,1,1.08-.18,2.37,2.37,0,0,1,1.45.41,1.53,1.53,0,0,1,.56,1.33v3h-1.21Zm0-1.2a.88.88,0,0,0-.4-.3,1.56,1.56,0,0,0-.57-.1,1.05,1.05,0,0,0-.62.18.63.63,0,0,0-.24.52.58.58,0,0,0,.24.49,1,1,0,0,0,.62.19,1.56,1.56,0,0,0,.57-.11.88.88,0,0,0,.4-.3Z" fill="#f8d47e"/><path d="M664.44,85.26V78.92h1.2v.58a1.92,1.92,0,0,1,.63-.51,1.79,1.79,0,0,1,.79-.18,1.86,1.86,0,0,1,1.77,1.11,3.36,3.36,0,0,1,0,2.59,1.93,1.93,0,0,1-.72.84,2,2,0,0,1-1.05.28,1.85,1.85,0,0,1-.78-.17,1.87,1.87,0,0,1-.64-.53v2.33Zm3.08-5a1,1,0,0,0-.84-.37,1.26,1.26,0,0,0-.59.15,1.14,1.14,0,0,0-.45.38V82a1.21,1.21,0,0,0,.45.37,1.32,1.32,0,0,0,.59.15,1,1,0,0,0,.84-.37,1.63,1.63,0,0,0,0-1.94Z" fill="#f8d47e"/><path d="M674.8,83a1.76,1.76,0,0,1-.62.43,2.12,2.12,0,0,1-.83.16,1.69,1.69,0,0,1-.76-.17,1.5,1.5,0,0,1-.6-.52,1.42,1.42,0,0,1-.24-.83,1.39,1.39,0,0,1,.24-.84,1.56,1.56,0,0,1,.6-.48,1.94,1.94,0,0,1,.76-.15,2.47,2.47,0,0,1,.84.14,1.45,1.45,0,0,1,.61.42v-.64a.66.66,0,0,0-.28-.56,1.22,1.22,0,0,0-.73-.21,2,2,0,0,0-1.34.55l-.45-.81a2.76,2.76,0,0,1,.92-.54,3.31,3.31,0,0,1,1.08-.18,2.37,2.37,0,0,1,1.45.41,1.53,1.53,0,0,1,.56,1.33v3H674.8Zm0-1.2a.88.88,0,0,0-.4-.3,1.56,1.56,0,0,0-.57-.1,1,1,0,0,0-.62.18.63.63,0,0,0-.24.52.58.58,0,0,0,.24.49,1,1,0,0,0,.62.19,1.56,1.56,0,0,0,.57-.11.88.88,0,0,0,.4-.3Z" fill="#f8d47e"/><path d="M680.16,80.74a.83.83,0,0,0-.22-.66.89.89,0,0,0-.62-.2,1.13,1.13,0,0,0-.61.16,1.36,1.36,0,0,0-.44.38v3.09h-1.21V78.92h1.21v.6a2.06,2.06,0,0,1,.67-.5,2,2,0,0,1,.94-.21,1.34,1.34,0,0,1,1.49,1.46v3.24h-1.21Z" fill="#f8d47e"/><path d="M685.61,82.92a2,2,0,0,1-.63.53,1.75,1.75,0,0,1-.78.18,1.89,1.89,0,0,1-1.78-1.11,3,3,0,0,1-.26-1.3,3,3,0,0,1,.26-1.28,2.07,2.07,0,0,1,.73-.84,1.92,1.92,0,0,1,1.05-.29A1.71,1.71,0,0,1,685,79a1.77,1.77,0,0,1,.64.52V77.17h1.22v6.34h-1.22Zm0-2.51a1.07,1.07,0,0,0-.45-.38,1.26,1.26,0,0,0-.59-.15,1.05,1.05,0,0,0-.84.37,1.63,1.63,0,0,0,0,1.94,1.05,1.05,0,0,0,.84.37,1.26,1.26,0,0,0,.59-.15,1.12,1.12,0,0,0,.45-.37Z" fill="#f8d47e"/><path d="M690.08,77.17h1.2v6.34h-1.2Z" fill="#f8d47e"/><path d="M695.14,83a1.76,1.76,0,0,1-.62.43,2.12,2.12,0,0,1-.83.16,1.69,1.69,0,0,1-.76-.17,1.5,1.5,0,0,1-.6-.52,1.42,1.42,0,0,1-.24-.83,1.39,1.39,0,0,1,.24-.84,1.53,1.53,0,0,1,.59-.48,2,2,0,0,1,.77-.15,2.47,2.47,0,0,1,.84.14,1.51,1.51,0,0,1,.61.42v-.64a.66.66,0,0,0-.28-.56,1.22,1.22,0,0,0-.73-.21,1.94,1.94,0,0,0-1.34.55l-.45-.81a2.76,2.76,0,0,1,.92-.54,3.31,3.31,0,0,1,1.08-.18,2.32,2.32,0,0,1,1.44.41,1.51,1.51,0,0,1,.56,1.33v3h-1.2Zm0-1.2a.94.94,0,0,0-.4-.3,1.56,1.56,0,0,0-.57-.1,1,1,0,0,0-.62.18.64.64,0,0,0-.25.52.58.58,0,0,0,.25.49,1,1,0,0,0,.62.19,1.56,1.56,0,0,0,.57-.11.94.94,0,0,0,.4-.3Z" fill="#f8d47e"/><path d="M697.4,77.17h1.21v2.34a1.77,1.77,0,0,1,.64-.52,1.71,1.71,0,0,1,.77-.18,1.92,1.92,0,0,1,1.05.29,2.07,2.07,0,0,1,.73.84,3,3,0,0,1,.26,1.28,3,3,0,0,1-.26,1.3A1.89,1.89,0,0,1,700,83.63a1.75,1.75,0,0,1-.78-.18,2,2,0,0,1-.63-.53v.59H697.4Zm1.66,5.24a1.25,1.25,0,0,0,.58.15,1.07,1.07,0,0,0,.85-.37,1.37,1.37,0,0,0,.32-1,1.4,1.4,0,0,0-.32-1,1.07,1.07,0,0,0-.85-.37,1.25,1.25,0,0,0-.58.15,1.09,1.09,0,0,0-.45.39V82A1.12,1.12,0,0,0,699.06,82.41Z" fill="#f8d47e"/><path d="M702.89,80a2.36,2.36,0,0,1,.85-.87,2.39,2.39,0,0,1,1.22-.32,2.2,2.2,0,0,1,1.2.32A2.12,2.12,0,0,1,707,80a2.78,2.78,0,0,1,.29,1.31v.27h-3.41a1.18,1.18,0,0,0,.41.77,1.35,1.35,0,0,0,.91.3,2,2,0,0,0,.67-.12,1.54,1.54,0,0,0,.56-.33l.53.78a2.27,2.27,0,0,1-.84.47,3.3,3.3,0,0,1-1.05.16,2.66,2.66,0,0,1-1.26-.3,2.2,2.2,0,0,1-.87-.84,2.42,2.42,0,0,1-.32-1.27A2.51,2.51,0,0,1,702.89,80Zm1.27.08a1.2,1.2,0,0,0-.33.7h2.26a1.14,1.14,0,0,0-.31-.7,1.21,1.21,0,0,0-1.62,0Z" fill="#f8d47e"/><path d="M708,77.17h1.21v6.34H708Z" fill="#f8d47e"/><path d="M710.42,82.32a.78.78,0,0,1,.55-.23.76.76,0,0,1,.54.23.74.74,0,0,1,.23.54.78.78,0,0,1-.23.55.75.75,0,0,1-.54.22.75.75,0,0,1-.77-.77A.73.73,0,0,1,710.42,82.32Z" fill="#f8d47e"/></g><g id="rect"><rect width="728" height="90" fill="none"/></g></g></svg>